<mxfile host="Electron" modified="2024-09-10T04:10:29.909Z" agent="Mozilla/5.0 (Windows NT 10.0; Win64; x64) AppleWebKit/537.36 (KHTML, like Gecko) draw.io/24.2.5 Chrome/120.0.6099.109 Electron/28.1.0 Safari/537.36" etag="gd50s8EPmZRzU9X__V9X" version="24.2.5" type="device">
  <diagram name="第 1 页" id="e20AOn7TTNY05Bl7jmyi">
    <mxGraphModel dx="1195" dy="-472" grid="1" gridSize="10" guides="1" tooltips="1" connect="1" arrows="1" fold="1" page="1" pageScale="1" pageWidth="827" pageHeight="1169" math="0" shadow="0">
      <root>
        <mxCell id="0" />
        <mxCell id="1" parent="0" />
        <mxCell id="4UMG4UU5wfd407toeLiP-46" value="消费者" style="rounded=0;whiteSpace=wrap;html=1;fontSize=13;fontStyle=1;fillColor=#dae8fc;strokeColor=#6c8ebf;" vertex="1" parent="1">
          <mxGeometry x="180" y="1330" width="100" height="50" as="geometry" />
        </mxCell>
        <mxCell id="4UMG4UU5wfd407toeLiP-47" value="业务系统" style="rounded=0;whiteSpace=wrap;html=1;fontSize=13;fontStyle=1;fillColor=#dae8fc;strokeColor=#6c8ebf;" vertex="1" parent="1">
          <mxGeometry x="410" y="1330" width="100" height="50" as="geometry" />
        </mxCell>
        <mxCell id="4UMG4UU5wfd407toeLiP-48" value="知校平台" style="rounded=0;whiteSpace=wrap;html=1;fontSize=13;fontStyle=1;fillColor=#dae8fc;strokeColor=#6c8ebf;" vertex="1" parent="1">
          <mxGeometry x="635" y="1330" width="100" height="50" as="geometry" />
        </mxCell>
        <mxCell id="4UMG4UU5wfd407toeLiP-49" value="微信支付宝" style="rounded=0;whiteSpace=wrap;html=1;fontSize=13;fontStyle=1;fillColor=#dae8fc;strokeColor=#6c8ebf;" vertex="1" parent="1">
          <mxGeometry x="880" y="1330" width="100" height="50" as="geometry" />
        </mxCell>
        <mxCell id="4UMG4UU5wfd407toeLiP-50" value="" style="endArrow=none;dashed=1;html=1;dashPattern=1 3;strokeWidth=2;rounded=0;" edge="1" parent="1" source="4UMG4UU5wfd407toeLiP-57">
          <mxGeometry width="50" height="50" relative="1" as="geometry">
            <mxPoint x="230" y="2030" as="sourcePoint" />
            <mxPoint x="230" y="1380" as="targetPoint" />
          </mxGeometry>
        </mxCell>
        <mxCell id="4UMG4UU5wfd407toeLiP-51" value="" style="endArrow=none;dashed=1;html=1;dashPattern=1 3;strokeWidth=2;rounded=0;" edge="1" parent="1" source="4UMG4UU5wfd407toeLiP-62">
          <mxGeometry width="50" height="50" relative="1" as="geometry">
            <mxPoint x="459.58000000000004" y="2030" as="sourcePoint" />
            <mxPoint x="459.58000000000004" y="1380" as="targetPoint" />
          </mxGeometry>
        </mxCell>
        <mxCell id="4UMG4UU5wfd407toeLiP-52" value="" style="endArrow=none;dashed=1;html=1;dashPattern=1 3;strokeWidth=2;rounded=0;" edge="1" parent="1" source="4UMG4UU5wfd407toeLiP-65">
          <mxGeometry width="50" height="50" relative="1" as="geometry">
            <mxPoint x="684.58" y="2030" as="sourcePoint" />
            <mxPoint x="684.58" y="1380" as="targetPoint" />
          </mxGeometry>
        </mxCell>
        <mxCell id="4UMG4UU5wfd407toeLiP-53" value="" style="endArrow=none;dashed=1;html=1;dashPattern=1 3;strokeWidth=2;rounded=0;" edge="1" parent="1" source="4UMG4UU5wfd407toeLiP-83">
          <mxGeometry width="50" height="50" relative="1" as="geometry">
            <mxPoint x="929.58" y="2030" as="sourcePoint" />
            <mxPoint x="929.58" y="1380" as="targetPoint" />
          </mxGeometry>
        </mxCell>
        <mxCell id="4UMG4UU5wfd407toeLiP-54" value="" style="endArrow=none;dashed=1;html=1;dashPattern=1 3;strokeWidth=2;rounded=0;" edge="1" parent="1" source="4UMG4UU5wfd407toeLiP-75" target="4UMG4UU5wfd407toeLiP-57">
          <mxGeometry width="50" height="50" relative="1" as="geometry">
            <mxPoint x="230" y="2030" as="sourcePoint" />
            <mxPoint x="230" y="1380" as="targetPoint" />
          </mxGeometry>
        </mxCell>
        <mxCell id="4UMG4UU5wfd407toeLiP-55" style="rounded=0;orthogonalLoop=1;jettySize=auto;html=1;exitX=1;exitY=1;exitDx=0;exitDy=0;entryX=0;entryY=0;entryDx=0;entryDy=0;" edge="1" parent="1" source="4UMG4UU5wfd407toeLiP-57" target="4UMG4UU5wfd407toeLiP-62">
          <mxGeometry relative="1" as="geometry" />
        </mxCell>
        <mxCell id="4UMG4UU5wfd407toeLiP-56" value="统一下单" style="edgeLabel;html=1;align=center;verticalAlign=middle;resizable=0;points=[];" vertex="1" connectable="0" parent="4UMG4UU5wfd407toeLiP-55">
          <mxGeometry x="-0.3889" y="3" relative="1" as="geometry">
            <mxPoint x="26" y="3" as="offset" />
          </mxGeometry>
        </mxCell>
        <mxCell id="4UMG4UU5wfd407toeLiP-57" value="" style="rounded=0;whiteSpace=wrap;html=1;fillColor=#d5e8d4;strokeColor=#82b366;" vertex="1" parent="1">
          <mxGeometry x="220" y="1400" width="20" height="60" as="geometry" />
        </mxCell>
        <mxCell id="4UMG4UU5wfd407toeLiP-58" value="选商品" style="rounded=0;whiteSpace=wrap;html=1;" vertex="1" parent="1">
          <mxGeometry x="190" y="1420" width="80" height="20" as="geometry" />
        </mxCell>
        <mxCell id="4UMG4UU5wfd407toeLiP-59" value="" style="endArrow=none;dashed=1;html=1;dashPattern=1 3;strokeWidth=2;rounded=0;" edge="1" parent="1" source="4UMG4UU5wfd407toeLiP-88" target="4UMG4UU5wfd407toeLiP-62">
          <mxGeometry width="50" height="50" relative="1" as="geometry">
            <mxPoint x="459.58000000000004" y="2030" as="sourcePoint" />
            <mxPoint x="459.58000000000004" y="1380" as="targetPoint" />
          </mxGeometry>
        </mxCell>
        <mxCell id="4UMG4UU5wfd407toeLiP-60" style="rounded=0;orthogonalLoop=1;jettySize=auto;html=1;exitX=0;exitY=1;exitDx=0;exitDy=0;entryX=1;entryY=0;entryDx=0;entryDy=0;dashed=1;" edge="1" parent="1" source="4UMG4UU5wfd407toeLiP-62" target="4UMG4UU5wfd407toeLiP-75">
          <mxGeometry relative="1" as="geometry" />
        </mxCell>
        <mxCell id="4UMG4UU5wfd407toeLiP-61" value="展示支付页面" style="edgeLabel;html=1;align=center;verticalAlign=middle;resizable=0;points=[];" vertex="1" connectable="0" parent="4UMG4UU5wfd407toeLiP-60">
          <mxGeometry x="0.3095" y="-1" relative="1" as="geometry">
            <mxPoint x="28" y="1" as="offset" />
          </mxGeometry>
        </mxCell>
        <mxCell id="4UMG4UU5wfd407toeLiP-62" value="" style="rounded=0;whiteSpace=wrap;html=1;fillColor=#d5e8d4;strokeColor=#82b366;" vertex="1" parent="1">
          <mxGeometry x="450" y="1460" width="20" height="170" as="geometry" />
        </mxCell>
        <mxCell id="4UMG4UU5wfd407toeLiP-63" value="计算金额" style="rounded=0;whiteSpace=wrap;html=1;" vertex="1" parent="1">
          <mxGeometry x="420" y="1473" width="80" height="20" as="geometry" />
        </mxCell>
        <mxCell id="4UMG4UU5wfd407toeLiP-64" value="" style="endArrow=none;dashed=1;html=1;dashPattern=1 3;strokeWidth=2;rounded=0;" edge="1" parent="1" source="4UMG4UU5wfd407toeLiP-81" target="4UMG4UU5wfd407toeLiP-65">
          <mxGeometry width="50" height="50" relative="1" as="geometry">
            <mxPoint x="684.58" y="2030" as="sourcePoint" />
            <mxPoint x="684.58" y="1380" as="targetPoint" />
          </mxGeometry>
        </mxCell>
        <mxCell id="4UMG4UU5wfd407toeLiP-65" value="" style="rounded=0;whiteSpace=wrap;html=1;fillColor=#d5e8d4;strokeColor=#82b366;" vertex="1" parent="1">
          <mxGeometry x="675" y="1516.5" width="20" height="57" as="geometry" />
        </mxCell>
        <mxCell id="4UMG4UU5wfd407toeLiP-66" value="生成订单" style="rounded=0;whiteSpace=wrap;html=1;" vertex="1" parent="1">
          <mxGeometry x="650" y="1535" width="80" height="20" as="geometry" />
        </mxCell>
        <mxCell id="4UMG4UU5wfd407toeLiP-67" style="rounded=0;orthogonalLoop=1;jettySize=auto;html=1;exitX=1;exitY=0.321;exitDx=0;exitDy=0;entryX=0.25;entryY=0;entryDx=0;entryDy=0;exitPerimeter=0;" edge="1" parent="1" source="4UMG4UU5wfd407toeLiP-62" target="4UMG4UU5wfd407toeLiP-65">
          <mxGeometry relative="1" as="geometry">
            <mxPoint x="470" y="1510" as="sourcePoint" />
            <mxPoint x="670" y="1510" as="targetPoint" />
          </mxGeometry>
        </mxCell>
        <mxCell id="4UMG4UU5wfd407toeLiP-68" value="创建知校平台订单" style="edgeLabel;html=1;align=center;verticalAlign=middle;resizable=0;points=[];" vertex="1" connectable="0" parent="4UMG4UU5wfd407toeLiP-67">
          <mxGeometry x="-0.3889" y="3" relative="1" as="geometry">
            <mxPoint x="26" y="3" as="offset" />
          </mxGeometry>
        </mxCell>
        <mxCell id="4UMG4UU5wfd407toeLiP-69" style="rounded=0;orthogonalLoop=1;jettySize=auto;html=1;exitX=0;exitY=1;exitDx=0;exitDy=0;entryX=0.917;entryY=0.664;entryDx=0;entryDy=0;entryPerimeter=0;dashed=1;" edge="1" parent="1" source="4UMG4UU5wfd407toeLiP-65" target="4UMG4UU5wfd407toeLiP-62">
          <mxGeometry relative="1" as="geometry">
            <mxPoint x="473" y="1560" as="targetPoint" />
          </mxGeometry>
        </mxCell>
        <mxCell id="4UMG4UU5wfd407toeLiP-70" value="返回支付链接" style="edgeLabel;html=1;align=center;verticalAlign=middle;resizable=0;points=[];" vertex="1" connectable="0" parent="4UMG4UU5wfd407toeLiP-69">
          <mxGeometry x="0.4356" y="3" relative="1" as="geometry">
            <mxPoint x="35" y="-3" as="offset" />
          </mxGeometry>
        </mxCell>
        <mxCell id="4UMG4UU5wfd407toeLiP-71" value="前端跳转到支付链接页面" style="rounded=0;whiteSpace=wrap;html=1;" vertex="1" parent="1">
          <mxGeometry x="390" y="1595" width="150" height="20" as="geometry" />
        </mxCell>
        <mxCell id="4UMG4UU5wfd407toeLiP-72" value="" style="endArrow=none;dashed=1;html=1;dashPattern=1 3;strokeWidth=2;rounded=0;" edge="1" parent="1" target="4UMG4UU5wfd407toeLiP-75">
          <mxGeometry width="50" height="50" relative="1" as="geometry">
            <mxPoint x="230" y="1960" as="sourcePoint" />
            <mxPoint x="230" y="1460" as="targetPoint" />
          </mxGeometry>
        </mxCell>
        <mxCell id="4UMG4UU5wfd407toeLiP-73" style="rounded=0;orthogonalLoop=1;jettySize=auto;html=1;exitX=1;exitY=1;exitDx=0;exitDy=0;entryX=0;entryY=0;entryDx=0;entryDy=0;" edge="1" parent="1" source="4UMG4UU5wfd407toeLiP-75" target="4UMG4UU5wfd407toeLiP-81">
          <mxGeometry relative="1" as="geometry" />
        </mxCell>
        <mxCell id="4UMG4UU5wfd407toeLiP-74" value="用户点击确认支付" style="edgeLabel;html=1;align=center;verticalAlign=middle;resizable=0;points=[];" vertex="1" connectable="0" parent="4UMG4UU5wfd407toeLiP-73">
          <mxGeometry x="-0.4109" relative="1" as="geometry">
            <mxPoint x="-27" as="offset" />
          </mxGeometry>
        </mxCell>
        <mxCell id="4UMG4UU5wfd407toeLiP-75" value="" style="rounded=0;whiteSpace=wrap;html=1;fillColor=#d5e8d4;strokeColor=#82b366;" vertex="1" parent="1">
          <mxGeometry x="220" y="1630" width="20" height="50" as="geometry" />
        </mxCell>
        <mxCell id="4UMG4UU5wfd407toeLiP-76" value="" style="endArrow=none;dashed=1;html=1;dashPattern=1 3;strokeWidth=2;rounded=0;" edge="1" parent="1" target="4UMG4UU5wfd407toeLiP-81">
          <mxGeometry width="50" height="50" relative="1" as="geometry">
            <mxPoint x="685" y="1960" as="sourcePoint" />
            <mxPoint x="685" y="1574" as="targetPoint" />
          </mxGeometry>
        </mxCell>
        <mxCell id="4UMG4UU5wfd407toeLiP-77" style="rounded=0;orthogonalLoop=1;jettySize=auto;html=1;exitX=0;exitY=0.473;exitDx=0;exitDy=0;entryX=1;entryY=0;entryDx=0;entryDy=0;exitPerimeter=0;dashed=1;curved=0;" edge="1" parent="1" source="4UMG4UU5wfd407toeLiP-81" target="4UMG4UU5wfd407toeLiP-88">
          <mxGeometry relative="1" as="geometry" />
        </mxCell>
        <mxCell id="4UMG4UU5wfd407toeLiP-78" value="回调通知（notify_url）" style="edgeLabel;html=1;align=center;verticalAlign=middle;resizable=0;points=[];" vertex="1" connectable="0" parent="4UMG4UU5wfd407toeLiP-77">
          <mxGeometry x="0.1301" y="-1" relative="1" as="geometry">
            <mxPoint x="11" as="offset" />
          </mxGeometry>
        </mxCell>
        <mxCell id="4UMG4UU5wfd407toeLiP-79" style="rounded=0;orthogonalLoop=1;jettySize=auto;html=1;exitX=0;exitY=1;exitDx=0;exitDy=0;entryX=1;entryY=0;entryDx=0;entryDy=0;dashed=1;curved=0;" edge="1" parent="1" source="4UMG4UU5wfd407toeLiP-81" target="4UMG4UU5wfd407toeLiP-90">
          <mxGeometry relative="1" as="geometry" />
        </mxCell>
        <mxCell id="4UMG4UU5wfd407toeLiP-80" value="跳转回设置的回调页面（return_url）" style="edgeLabel;html=1;align=center;verticalAlign=middle;resizable=0;points=[];" vertex="1" connectable="0" parent="4UMG4UU5wfd407toeLiP-79">
          <mxGeometry x="-0.3218" relative="1" as="geometry">
            <mxPoint x="-50" as="offset" />
          </mxGeometry>
        </mxCell>
        <mxCell id="4UMG4UU5wfd407toeLiP-81" value="" style="rounded=0;whiteSpace=wrap;html=1;fillColor=#d5e8d4;strokeColor=#82b366;" vertex="1" parent="1">
          <mxGeometry x="675" y="1680" width="20" height="170" as="geometry" />
        </mxCell>
        <mxCell id="4UMG4UU5wfd407toeLiP-82" value="" style="endArrow=none;dashed=1;html=1;dashPattern=1 3;strokeWidth=2;rounded=0;" edge="1" parent="1" target="4UMG4UU5wfd407toeLiP-83">
          <mxGeometry width="50" height="50" relative="1" as="geometry">
            <mxPoint x="930" y="1960" as="sourcePoint" />
            <mxPoint x="929.58" y="1380" as="targetPoint" />
          </mxGeometry>
        </mxCell>
        <mxCell id="4UMG4UU5wfd407toeLiP-83" value="" style="rounded=0;whiteSpace=wrap;html=1;fillColor=#d5e8d4;strokeColor=#82b366;" vertex="1" parent="1">
          <mxGeometry x="920" y="1700" width="20" height="40" as="geometry" />
        </mxCell>
        <mxCell id="4UMG4UU5wfd407toeLiP-84" style="rounded=0;orthogonalLoop=1;jettySize=auto;html=1;exitX=1;exitY=0.11;exitDx=0;exitDy=0;exitPerimeter=0;" edge="1" parent="1" source="4UMG4UU5wfd407toeLiP-81">
          <mxGeometry relative="1" as="geometry">
            <mxPoint x="700" y="1701" as="sourcePoint" />
            <mxPoint x="920" y="1701" as="targetPoint" />
          </mxGeometry>
        </mxCell>
        <mxCell id="4UMG4UU5wfd407toeLiP-85" value="发起支付" style="edgeLabel;html=1;align=center;verticalAlign=middle;resizable=0;points=[];" vertex="1" connectable="0" parent="4UMG4UU5wfd407toeLiP-84">
          <mxGeometry x="-0.3889" y="3" relative="1" as="geometry">
            <mxPoint x="34" y="3" as="offset" />
          </mxGeometry>
        </mxCell>
        <mxCell id="4UMG4UU5wfd407toeLiP-86" style="rounded=0;orthogonalLoop=1;jettySize=auto;html=1;exitX=0;exitY=1;exitDx=0;exitDy=0;entryX=1.125;entryY=0.345;entryDx=0;entryDy=0;dashed=1;entryPerimeter=0;" edge="1" parent="1" source="4UMG4UU5wfd407toeLiP-83" target="4UMG4UU5wfd407toeLiP-81">
          <mxGeometry relative="1" as="geometry" />
        </mxCell>
        <mxCell id="4UMG4UU5wfd407toeLiP-87" value="" style="endArrow=none;dashed=1;html=1;dashPattern=1 3;strokeWidth=2;rounded=0;" edge="1" parent="1" target="4UMG4UU5wfd407toeLiP-88">
          <mxGeometry width="50" height="50" relative="1" as="geometry">
            <mxPoint x="460" y="1960" as="sourcePoint" />
            <mxPoint x="460" y="1630" as="targetPoint" />
          </mxGeometry>
        </mxCell>
        <mxCell id="4UMG4UU5wfd407toeLiP-88" value="" style="rounded=0;whiteSpace=wrap;html=1;fillColor=#d5e8d4;strokeColor=#82b366;" vertex="1" parent="1">
          <mxGeometry x="450" y="1760" width="20" height="60" as="geometry" />
        </mxCell>
        <mxCell id="4UMG4UU5wfd407toeLiP-89" value="处理回调逻辑&lt;br&gt;（如修改订单支付状态，添加权益）" style="rounded=0;whiteSpace=wrap;html=1;" vertex="1" parent="1">
          <mxGeometry x="367.5" y="1771.25" width="195" height="37.5" as="geometry" />
        </mxCell>
        <mxCell id="4UMG4UU5wfd407toeLiP-90" value="" style="rounded=0;whiteSpace=wrap;html=1;fillColor=#d5e8d4;strokeColor=#82b366;" vertex="1" parent="1">
          <mxGeometry x="220" y="1850" width="20" height="50" as="geometry" />
        </mxCell>
        <mxCell id="4UMG4UU5wfd407toeLiP-93" value="" style="shape=image;verticalLabelPosition=bottom;labelBackgroundColor=default;verticalAlign=top;aspect=fixed;imageAspect=0;image=data:image/png,iVBORw0KGgoAAAANSUhEUgAAATkAAAJQCAYAAAD18hP+AAAgAElEQVR4Aezdh5sdxbU2+u+fufc799gmY0yQRJBEBhuTbIwxYHA45xjjRLCxsX1McMBgDIoEk7PJoEDOOecokAQCFFGcVPf51WgNra2RtGe098zsPVU8RXVX6u73rfXWqurW7P+TSigIFAQKAm2MwP9p42crj1YQKAgUBFIRuTIICgIFgbZGoIhcW9NbHq4gUBAoIpdS6unpKSOhxRAonLUYYWtvdzh4G5UiB+gq2LXnrTl82v+uaznr7Oxs/4du8Sesta3u7u51bG8oHm/UiRzQu7q6ErAjvP/++2nZsmVxWtIRhkAYypo1a/rujMC9+uqrQ24wfTdQDjaJAN7wFLbm/O23304rV64cUt5GjcgBuKOjI3322Wfp9ddfT6tWrcokyf/888/TG2+8kclwXsLwIxA8MJAVK1ak9957L82ZMycbR3D58ssvZ06j7vDf9ei9AxwED1IT0oIFC7JdOZaHy4ULFyZORbV+s1FrO5EL8KSClKDNmzcvvfbaa+mTTz7pIyPABT6DCTKibZSXtPkIBG9xJVwsXrw4vfnmm1ngTFBRB1+OGcyHH35YJqcAbZjS4MUKyYRExDgSixYtyqsm5YKUZ/fKK68MKWdtI3IBtJQRiJagPLQXXnghe2tRh+fGgCLIV/fjjz8eUvDj+qM5DU6CM+I2f/78bAiMRT7jkf/RRx/1caud/JdeeqlwNsQDKDiLFEdLly7N2wecBU6FPBMToWNb6grSTz/9NOerMxShLUSuCjZggWi2mDt3bjYOSx37ALw5+dxo+zm1IBNEM00QMhQEjOZrwBkHIkN45513sudmElq+fHn24BgPr0AZ/pwTN0F7E9OSJUtGM4xD/uzB2+rVq7Mt4QcPePnggw/6Vk7sia299dZbuSzasVFlzocitLzIAUo0e5jtGYfZg+EAnbgB1IanfMaivmUO17oKNELUF6r5Q0HEaLgGTANXqQkFB7iCPf4cMx7bCiYixsOIGIZ8x9EHzPSB2xKaj0DwhzO4Ww3FpIM3tmdLiI1xNExK8nnk7MqxyC6V6WMoQsuIXAzsAFoKrHhpQMjCSADJM2AQQA93Wf3w4BhNrcFoZ59HPcclNBYBnMEVTyYZXJh4glOcMBBLHntx8tX1ssgS1jmvXF6EqBMcR19RXtKBIwDDanCONx5ziBgOAmv84EwkdOqGfREyedWXDdEu9sfjvHrNRh63jMjFQwOECMWS0+APUVIGYPHdd9/NMwUyiJnZnuEwKrOMNvKlEbRHIo9BHyU0BoEYxDwA+Fq+8LyrvKnDKyB+DIOYOWY4+NIOJ9rFW9a4O2MA3/qLa0VZSQePALyJVWzzECV5MI7gmF2px+EIO8OfPVTeHj45IVV+HMcLiNo+o+9GpS0lcsAywA14wAJVniUNcAEOMMHsYU/OOe8gDMr5iy++mOsihiEFadFeGnmNAnq09gN3IkWsiFvM6ASPJxfLVfjA3MSDI54Z4ZKnDzwRQWWMQ17hqHmjinPAbvDB1kz87MWeG7uqYk/8OB24if03x5aoztXlBUYdZaL8iM17ktQa/0AfwN6iMRDgAwhgDIfgETsGYZYPY2EEyCGC8hGmDylR1EY/1bdzAXikzQS+3fqGWW1gEDgywPEBb3zJUybfjF/Fm8GIAgMJb842QkxkynnkJTQeAcIU/LAd3ODKhIQPkxIe2GEE9dgafoNTExFuYz9Ofe3UCb6rafTVjHTEeXIenCgZyLFxCZiYuQ1uhgI89cwu2pjlwwgCPB6E/QJtw0PQlza8Of24BuIE7aokNAPwduwTbjA2GTEEqRDCBm+TELzxFxMV48CZ+oG7MgYTnFryBC/yTUq8+RDHdsRzqJ4JrmyInZhEws6CC/nEykSjHr6UyedkRNCPOhwHXIdzgX8euT7kEcvw3LWpxuirGemIEzkg8rSs5QESHhdAlDEigDuOPRzHUYaICAxGfW31F3sL1T60q4JdPY5+SrpxBGAWgmVgMxjn8uFrwsKpMhH+cRwvFYIHaRiDPggjQTNJhUcY/apbwuARgKOVDTsjRlUBgi3siZZj+56ELbiOPba4urYcD3XVMznhjPjpQ7sqb3EeafTTjHRYRM6DVUP1QYEUszn15wFUQWIwVbABGcLGYJTpQ59SICMIYQwtvIgojzTaxL1IS/gCgf7wCKzUgh/xwpelTXVyCrEibNrgAVfa4CMMxrnIYPQl8vSqxhd3FHXjvKTrI7AhzqKmcvjDGAe4wxFslRGt4JENqhe4syuTjnpRH1/269gaOw27jTaRalMb456akQ6byHlIHlksJwEAYDMAwAHFUwvDCFAApzyABSoi1BMtfdQV4hqMjqEpj3bR38bSZgDeqn0Gpu6fRxzetHwveXAiMgRY1w5oBsMo5Gsby02c2AfSJrhQh4cR31ZFfhW7/vKq5eX4i289YWWisFUQvLAjnLAze3DspsoB/MLZiDZEMHjXvpbn2I/DafBTb9pMvoZc5KoDGhiEjMdGqBiIcwCqxxAAHEABwrHljOWnY56bNoTM2l9kbAwx2lXJi7x60mYCP9L7hk8Ex/ZhIo9BmMl5ZAY+rMNDNpvjrhZfeeEJaE/E9MnIcMcjNw6C76qhRF7cjzT6r+aV4y8QgA+bCs7gyWbgbFLCk5RtEMCwFz3AO9LgUx5RVFcfOMMdW7M9EXyE8MV5vekXd974o6aJXIAbtxwPa7AzkCiXArA2MgCgIiLKoi992HxGHMMgioxMGsfOhbhOtC1p/QgEZ3A2qKtYBm/K8OOcAZjNcSOvGpybtAgcbmOPjlGIeFMW16xtX+2rHG8YgeBFigs4VwNcxcAZf5aWhCtsplrfXl1sARE19cPOgjP8RX8jkbemiFwA7YGBEjM90ZIHrADGwOYNMBDtGIg3aJaxUaaufkR1nOvHXlt8sxPXjFS54xIGhkDgxwsgSrDGn6VO7IXC1jHe1DeTMxL8GvhVPoPn6Ben6srvL6gXdfsrL3kbRgD2HIiq3cTkBFM2xoMOTvDrKwMrIc5ErJzYWdhPpDhlk1V+lEV53JXykRaaInIeEuAGPXDMBpYqQGYcDCZcXCKlXD2AIcjsow7AGBhwg8AAVn6IZgA/0sBttfuBI354x2Z3g96AZyjwtxWgjmUPfnAqnwcgOmdA9m2CT5OWMu3wT+BiQpNXwuYjAE94wxovtnN4cWwMj0QMj8rlsRvYx95o7Gnj23HYoDqi+myS7bViaKjIASRmfYPfet4AB7i1exiMlMHELKCdGQbojrWN/RsEKiOEyFOOhBBJoMsrYeAIBG7w5AHgirHEdgA+wnAYSrzkCd7M/vJi4sGTPP2ZmJTpF4fqMEB9R/uB3/GmW8QzRVptIS/yI43y2vPIH6mp+4VveGF4IlDwxwMu2R8u2J76wVPVu6vaGm7UxbtVkuAYb83krNkYN1zkYoATNmCb2YEKQG9OzQgECynVGR1ByqUANasQOvs3YXxmJWRVB2T1uNlgtUv/gS9+YMwzw5eBjRPG4xiXJiP1bDFIqy8HYM8o8MNYcKw/eXg3Kd1zzz3ptNNOS7/73e/SjTfemI2wEZzp4/HHH09nnXVWOumkk9KFF16YBXpTHIWhe7ZbbrklXXrppenuu+/eVLMRV+75CRCbYDO4cc5ucMlu8FgVvXh2fCsnkHjCqRiTUIyJ4CnSEQdCnTfUUJFzTYAEmCFsDAaYsXEZRgBMdaONfIIIfMsaYhgASyPW+Wyl2kYQOOecc9I222yT47e//e0+znjZBnxMLH/84x/Tz3/+83TBBRekU089NXOoTMCHScvkZJlrWcOwCN4//vGPtNNOO6Xtttsubbvttvk60nHjxqUbbrhhI3e26SLe4SGHHJK22mqrHD2Hvl3rmGOOycYe4yZ6c07Yrr766lxnhx12SFtvvXVud9xxx0W1lko9U9hPLE3DI8eh52VjxC+2D6INO7MfRxBjCyH6irQ/DFsKoLU323CR06/ZJAa7b3AIHANABOFSjoB4PQ1MkRia/RmaNrUgtyLAI/WecTFmzJg+cZg9e3bmxQRjqancpLTjjjumBx98MI0fP75v+cMLxw1jEL0oInw4xd3555+ftt9++xxD5IhQRHnXXXfdoPh1b8STQEXccsst83GI3Te/+c3sVcI+xpB0//33z/cQ4h7p97///ZFK0ybvi3iZaOBP2Hji7Mikw4tjYyYdZbiBg0j8TE5ha1VhizrSdghNETngMBaeHLfYbGHmAGTsE9i7Uwch8gVGgpAAuR0AHsnPYJkWwrPffvtlvoiICcbs/oMf/CAvM//yl7+kGTNmZMPAlbKYhHBlmSNVZlLjJYXI8eiIoD9B/7//+799nt3Xvva1vMQaCD4MmYCFuO2zzz5ZgBnwHXfckfv+6le/msv/9Kc/rTOOGPOECRP6RK7qBfLk3H8rBs9l+cl2YruHgMHKEjZsUB1L27A13p3jsLUNpa2ISe09N03kgAZ4M4t9HQQANowDwGIsYWtvrJw3HwGGYNkXHs1VV12VOeEF4Iyg3Hvvvenggw/uEzF3xUtnNGEY8uL4qKOOygJHbP785z9nTyGeBN8nn3xyn7Daq6s36P/pp5/Oy1Mip397UfIjMOoQbUJrco1y1957773TL3/5y3TnnXdmMY7nPv7446OLlks9n2fjtVkl8ezwEw6DMnXYHU4Dj5Z70M244aaKXMwiBiOjkFqq8uIYmCUsTy+I2IznKE0HgYABz8MiDAzekpRxPPfcc1kQJk6cmIXFXinjsYTleVuuMppq0Bd+eWixRDWxCVXDsmcUQrTzzjvnNtV++jvW3hg59thj+7y4c889d51+tePVEO14nptuuinX0V40ycYxIfDM6raDyPHAedTELl5G4AxfODUB4G80hqaIXABpUAHZwLLXFi4yIohciFsMvGhX0qFDAPZ/+MMf+oTn9NNPz28tGf/uu+/e9wdG8WVCIiRV3uJO9XP99df39XPkkUdm3qM8UvV4hiF09gI3FbQxZogSL85SmKC6F2URHN9+++194vX1r38932uUR6peiBxBbmWR80yehxOBH8fEzbYPfGwJBWd4G42haSIHbKJm5jbrW5YCuWog6pQwvAjggBdg+UdEvGggPM4vvvjiviVfcCWtcli9+1/84hd94vX3v/+9WrTO8Yknntjn7XlrW4/xmSzdn700b2jDcOO+4gKWbLFnpz4vpraOuu0mcpbmPDjbQ1ZI/fEkrz8sArt2TZsmcgAz+8dmZ3mhMLKGkMFuO4FHJF5yySVZRHg206dPz97SzTffnI2G4ai7qXDEEUf0iZxv0PoLruulAE/OtX7/+9/XJXK2OYgXkeNhbigQTP0SONeIlyK19dtN5HAYWz8bmoRqMRgt500VuQC7OlOPxplkpA6mn/zkJ32iFKJAGHhxVaFQNnbs2E0+RuyH6eO+++7rV7zw721tiJwPeesZE97oEjhCZ69Q6K+dsWY56/7VN8n2V6+dRA4Wnrvq3Xrm/p57kyS2YYWmilwBeWSPmBNOOCGLAcGJSBxCgCKvHpHDtb027cX7778/G15/Y+Bvf/tbXz1vW+sJPhMJkdtzzz032MT1vFl17+rHPlVtg3YTOc9dG2ufebSeN1XkRiuorfDcDMJ+2A9/+MMcfRN30EEH9YmPN63KbMqLvL6NBf0dfvjhfQLpu7rw5Kvt1DvjjDP6ruNFRz3BPlPstfneTT/9BdfkiRI59aufkVTrt5vIeTaYVGP1eUfzcRG5Uch+1RCIQsRrr702iw+B+NWvftX3TWPU3xhU6vzmN7/pEy/7epZP8qvBOe8tPEb/5rSe4Kv+8OR23XXX9fqNPuItrGcgdvaFa+9B3XYUucCgpOsiUERuXTxGzRnDf/bZZ9OsWbNy9EbVv1MlDpan3/ve9/rK1LHH1p9YBGDKbrvttj6R+9GPfpRFLsojVc+/lQ2R87HxxvrVTrmXH+6L0BGv+Kg8+o16+lPPcxx22GG5bX/9F5GrItfex0Xk2pvfDT4dwydExGBTkWj4bGNTwRtYn6AQMELkc47a4IPUEFIfDqvTnwjVtlPHkjqWrLfeemu/7fyLi+jf2+EN9V1Erhbh9j0vIte+3G70yULkCFg1hkDUCl89ImfZywMkcqKPg10nhEbqn3oRKv2fcsopfUvlqFebxkPIj3+dob37cb1q8EFsvHTwTM43FELk3Ic9R/2X0J4IFJFrT143+VSM2r8FjeWq1DdrIXJHH310/ijYMlb0trSe4M/38OJiOepfIPjnXT7mveKKK/o8MZ95+Mf8tZ89ePMq/vWvf81/XSOu6X59a+kf5RMwQuevh/h+zhtUH5vvscceOV+5Pw+1MeEKkVO31f/FQ2BU0v4RKCLXPy5tnduf8cu75pprssgRuno/7egPKB/7hsjpK4QzxMn5eeedt44IuT7PLOpLCWZt8N2bJbG+qjFeSsjzYsLHsf09Z/RXK3IbqxttStqaCBSRa03eGn7XBKYqcpaSgwkhFrxCe25V0eJ9ybNk7e/FQYhcLHf7Ezn35N9m+laOoOlfqm8pT88/U4v72NAz1IrchuqV/NZHoIhc63O42U9AEAiMJd+VV16Z40MPPTSofkNcpP5JlT+gaVlpSThp0qS8T+ZaUa96Efn+mKa9PNGffOovaGuZ60+r+9NJ/hiA7+0sv4mnfjYVeHquJXpzXEL7IlBErn25HfCT9Sc8A+6kjgZDdZ06bqVUGQUIFJEbBSSPpEfckMBtKH8k3Xu5l9ZEoIhca/JW7rogUBCoE4EicnUCVaoVBAoCrYlAEbnW5K3cdUGgIFAnAkXk6gSqVCsIFARaE4Eicq3JW7nrgkBBoE4EisjVCVSpVhAoCLQmAkXkWpO3ctcFgYJAnQgUkasTqFKtIFAQaE0Eisi1Jm/lrgsCBYE6ESgiVydQpVpBoCDQmggUkWtN3spdFwQKAnUiUESuTqBKtYJAQaA1ESgi15q8lbsuCBQE6kSgiFydQJVqBYGCQGsiUESuNXkrd10QKAjUiUARuTqBKtUKAgWB1kSgiFxr8lbuuiBQEKgTgSJydQJVqhUECgKtiUARudbkrdx1QaAgUCcCReTqBKpUKwgUBFoTgSJyrclbueuCQEGgTgSKyNUJVKlWECgItCYCReRak7dy1wWBgkCdCBSRqxOoUq0gUBBoTQSKyLUmb+WuCwIFgToRKCJXJ1ClWkGgINCaCBSRa03eyl0XBAoCdSJQRK5OoEq1gkBBoDURKCLXmryVuy4IFATqRKCIXJ1AlWoFgYJAayJQRK41eSt3XRAoCNSJQBG5OoEq1QoCBYHWRKCIXGvyVu66IFAQqBOBInJ1AlWqFQQKAq2JQBG51uSt3HVBoCBQJwJF5OoEqlQrCBQEWhOBInKtyVu564JAQaBOBEaMyPX09CSxhIJAQaAg0EgEmipyGxOtWlFz3tXVtc6zbay9it3d3TnW9lXtJPqItFpWjgsCBYHGIVC1serxYK6g/eb2EddtisgtWLAgXX311fkaa9asSatWrVovLl++PD9EPMijjz6aLr/88ixaGq5YsSJNnz49ffzxx3Gv66WLFi1KkyZNSnfdddcGAeno6Mj9dHZ2ZhF97LHHUm2sFdf1LlQyCgKjGIH+BGdDeez9zTffTNKw7f6gU/b2228nNlwN0W8jbbLhIucmCcuFF16Ybr/99vTWW2+lKVOmZDEiSNVIeNR/44030muvvZauuOKK9MILL6RXX301XXnllemOO+7Ix5988sl6gM2fPz9NmzYtPf744+myyy5Ld999d66jvwjXXnttrjN58uQ0derUXO+5555Lorznn38+X48Iu+dq2+ijpMOLwIY4kb9kyZLC2RDQ8+CDD6add945vf/++/lqL774Ytphhx2y3cbl8fHAAw+kr33ta2mbbbbJ8fzzz1+HH3XY2sKFC9P222+ftt566xwPP/zw6CZ95zvfyX1su+226wlgX6UBHjRc5Fzfw1By3polpfOIRK42nwd3zz33JN7cvffemwWJeInXXHNN9rziuT7//PN00003ZeF87733cv8ESh7Pj0DGtZChD8JJUJ0TVJHoPfPMM+nZZ59Nc+bMSXPnzu2717hWSYcfgeDSzF6d9fGJV+UlNBcBGH/ve99LJ554Yl4NHXXUUenss89eZ3sJP7vvvnvOxw17/upXv5qs6miAoB9C+Yc//CFNnDgxa4SJaquttkpPPvlkrnP00UenV155JY1okVu9enVW9Pvuu69vAFYHIpGj5pEnJXIPPfRQFpyHH344C1B4WTfccEOfyPHoeGCXXHJJjtpdeumlfZFH5/z+++/P/c+bNy+LoeUsETQj6fedd97JBsJI9EeQAYuoIKS5w6b0vikEjAtcmBAtf3j6xo0QZSarpUuXbqqrUt4ABD766KPsfZ1++ulpl112ydtJYcO6f+mll9J2222X2Bx74jhwMDgu7Co4W7lyZZo1a1a67rrrcr6yb37zm+nQQw/NddQTiRwBbERouCdH5IjJBRdckG+29iYtXWOwRhlxevrpp/PS9pFHHsnCZJlrzU6c5MXDA1BctmxZWrx4cbr44ouzQDlnECFUDOSWW25JTzzxRPbuLFHVsYSWuqY+3ac27777bs4vIhesDE+KE3yY0F5//fX04Ycf5vGCFzHGgdRYI34lNBcBuLOXQw45JC9D/+d//idvJ+EgAqfmwAMPzDZs8iFQ+++/fzrnnHP6eNOPperMmTMzt2GrJ598cho7duw6ejGiRc6DEyEeW3+hVuTU55ERRktHHt0///nPvG/G07rxxhv7RE5/3F+zQ7w8uOiii/J+XJxbkurT0saxftUnhlxo8eWXX+6bYULkLHkJK+Cr5PX3DCWvsQjAWzTLW84wEh4BgZNvUsQNbxtPIXZSImd5VELzEMDBfvvtl/bee++8h+b44IMPztzgwIRkhWSPHEfy2NGZZ56ZnnrqqcQLxJF+2OWRRx6ZV1Pqib/4xS/SuHHj1nmAlhE5D1XrctaKnCfjZVmT2yObPXt29uR4ds6JV+yXqQswwIm8NCLH/VWfe0woiZh6Xkbw5ogdT00bM457Ug8RIXLAtiwKg3HvJQwNArC2hUDg7LnigOARO9E+q3MeuBdOYRz4k//BBx8MzY2O0qvA2944W7F/xoavv/76LG74+fTTT7PteOHg5YO9cmJ3xhlnZKdCHX3gmQPkpQV7DR7Hjx+ffvnLX66DbsuIHHW3wV8VjKrIybeWJ3Ai0eJpmRGch5gBBJDqG9iWnMAEEg8NiETs1ltvzXsFjESZz094cZa9xNL9EFSzCZJ4hdxwferb8sdxELIO6uVksxCArxgDG844JWyBvTKeGi/OUtXShlHw6GxFKOO5RR9S/fjcKPrfrJssjddDAK6Cpecee+yRjjjiiLyf9pOf/CRPRsEBx8Ey9Oabb84Tj710e+H4Y2cmJxOY+jTBHhxOTWAEjTdYDSNe5MyuxMymPi8sBrcH9oCxJ+eBiRxxi8grI3Kx/JTy0AAV/RjUxAswBJCImT2q15JH/Ozpydc/kePl8e58nuLavINwpYFsWUTsgtwq8OV4cAhUscQ9zwvO9lQJl3Lxs88+yx4dY1BufMjjYfP0nOPcywbH2kh57fGmfXB3WFptDIHA3QRjj82kE/izHVzhxeT005/+NO2zzz75xSD7wrd455135k/EtKMPJ5xwQnZodtxxx3Tuuef2jYG4Dy8xaleBUTbQtOEvHgw8D+UNaCg3j8o5gbPHFp6Tm/XQ1WjAqlfNc6xf4mN5OmPGjLyUve222/r65ZH5No+wekMLcELH0yNsDIW3Z/+PaLoHZPlomfi6hkD0qvc3UEBL/fURgK0ByxiIlUlKnnESWAe/OJNnUjNJ8boZEv7kE8VY/lTHhbGmj2pc/05KTr0IwJa9cRCIG68aXyaTsOvAP7YZcEPYnKtrMmJjeNMuVmM40la5fh0L8iOw38iPvMGmDRc5N+JmY4aOc4PVzB3AVB+oevMGtHq15dSfgYjAAQLQkGDQi+GRaas+o2JcRFYbebw5RMR9OFe/amy1167eXzmuHwF8wD5meuJGxIwFeTgzyOEd0UTEQBiYOnjhJVi+xsBXJ7zt4DHaV9P677TUDATgScTYWQha1eZwFhNO2Awb451rG1sLuNY+Xgw5j62JuBauhEgjv9Fpw0UubjjSgd4w4IAlDdHiaRngREp+kAB8AKvHECxtIrg+I2EMBJc3hwAGpD3jI5LhUsd1B3vfcd3RnOIN1lIRxrEkhTsvnVjx0oIXoqduBJORb6zwYAILjvXLuHAnla+dehuK0WdJ+0cAbjAMzpzjCW9SZfgjVCF47AQveFAeka2xUzaqvj4cszF84z7ejgdf/d9V43MbLnKDvUUPLkgBYrCHGwxI+cTMLG7WsKwkcOopQ0rVYOQpQ4j2+goS5DE2osjY5KsfcbDPMFrbwY2hGNgmo5jVwwDkM4JYeuI3OFXXBnQERhRLVkZC8ORpy3hsYPMKwtsvnAVyg0vZBTuCeYgdbtgar42twBv+UmX4wlvVMQgxU04QtVcff/rGl3bygzPpUIQRI3Ie1kMDDiDUn5ARNSJUaxTqARGg2ilHGMOIIK+65PEmB+jAVhaxCvpQAR/32IppFaMqdjwsXBGi6jI0jALe6vPC8ORYGd6q/Zh8wtvDGSORx0AKZwMfMYFtbUv5cGZvhA4PIVzS8M7UC4ch+sIJxyLOCaQ8HJnoOBFWTjy+qFPlrvZemnk+rCIXg776gECKZSRBInQBjtR5dRYJYAHJYBiY4whmIDOS5SyvLUis1om6Ja0PATwIgaEUtjwtMQRJvqg+g1HHOaNiAPLxUTUu5QwmNrAZiTrBmzbRbzWt785Hby1YVTlzzNbYBawJE6chMIU3HnnhkceOcOOcXVUnMnk8dDyz33BMRgJfQy5y8dBANjvwxLjEwAM0IKXygKw+MoDoWAAxws0AACAASURBVNQmBIuoAZxnEDHKXCPICoL1U8LAEYCjIOWJmYAYBQ/AOU7wiT914FyNBj6DwR9+eOg4x5nJSVrdNgihVD/6cf04rk0H/kTt3wJGgZmJBU94wI9JJiZ/XFSdCW3gzu7UCfvDOZ54cLW25lp4ZYvBmbQaqpxV85t9POQiF/toHsxDG+gGNNCUBaCIsPxRDqwAThtAcrMd8+q0C2F0jjTnJTQGAdjzmIXgwkBnGLhzHMJmNseHgJ8IymPrgHcWvDE2kTfHCKs8a1/tI/oqaf8I1GLFRthVcMa22I6U6EnxIrW8VK8a9MfZ0EY9/OiPbeGP6JnclAdXtfxV+xuu4yEROQCJBjdAiVcQIjWDKweQYy60QW/mr3WJAaUPhmTmYDjOq+BWj4cL2Fa8bpUTGJpg8ELEDGjn6igT5QvyCJ4BL8WvdtFf1OHp6YOBMLLgKcrVjzaR5guU/20SgcAucOcd4ydsLTircsjWTEp4Y2/V/bPoT30eu/7Ui/zaNG5wQ/lRPhxpU0UOQEDkWXGTzQBmAmBJAWIW5yWYdRDBAMwqQEVYeHP6ImwBIoHTjlGV0BgEYIsDMzPObPqbQBzDOwY5Hkwu8Y+xeXNmfEKIM5zjW394lSc4V4bjqsBV716dEgaOAHvCAW8LPzAOGwknAD+WnyFmznFM7NRhd7gijoRNwIe+8a0/59VYe6fVMscjITRU5DwUkKQAARrA5QGTUDEUZQxHPsANeGIGaG21YQyOiRjC1EVK9A10ZfIF+SUMDgHY4UCEKw8aR8QrZnDceKkAb2XOTVr4k6ctA1LmXD+MA3fh8cUyR3nha3BcVVsFjjxk9sMeCJbJP0QPP/at1Q3HAY/BuVWTiE98x74p+8NpCFz1pYS2Eav34zjyI60tH47zhoucgWw2AbwPcA16eUADlDJ5BBAhQRSPThvAAghpCEIAb4DAcamjXNuRBORwkNeoa+ID3jiCNdxNQiYlwmWgMxRGFIMf9gyDmDnGi7bBlz5wrVz/6gRnjbrv0dwPPE0gnAa8wDrshZ2EOFUnJxyxN21wG7bHAdEHkWOrbFEavEa9VsW74SIHSAAa2GYFYFvWANsMY1ZnKPZkgBpAMgCGpUxbRDA89dVBApHUfwT5JWweAjAMDsz0wQODwQ+DwSdDMNhNXLiMdjjDkbq4Vg/vyvGI56grrYba82pZOd4wAoEnW4Axfgge+2BjeMRL2Bg+OBDaaRMcszGcsjNRP+pYSem3XfhpqMihBTAMBGAhbMAnUjGDABS4vDmgayOajXgOIYRRtmG6S0kjEIA9PogUzBkMQ4iBz4tmMAa/Gb7qceM29nnUY2D6K6H5CMAZ3uxMCn+TDVsjdjE5SatLVO04HuxPu1iiumNl1dj8p2j+FRoucm7ZkgXIxE7KgIBMvOKVtM1txwgJUL1Jje94Iq+k6w66ZuHBEExCPADCxWDwiLOYjGJPzjlO416cV727yC9p87mz8rElEF4cD4yzwK7wR8AIGW5xaRIT5Vdtb6Ry1QgJbIrIAQyQDAH41vjhHfAE5PMMGAZCAmD52sV5SZtvJFWMgzO8xEsExsEYeHbxOQ8hdB5tDcQ4LunQcgbvsBs2xUmwxYBDQoYnnjeBw6X6wXN/ttYIURlpfTRc5GKQe1AzCI/NTIOA2OcBPICBX+sVRPuSDr2xwJzB8NhwhR/HlkAmK+VhLPjsz0gKb8PDG3HDCSHj3bE9vOFTVBYeOd6Cu0hHKm8xgW6OcDZU5GqBYhjxb0l5Ac6JXngJZpqyzBkeo6jlKs4ZREw8IXj26ixfeeT4Y0BVQ4m2I91g4j7bKQ0eCJro2eLlHZuzr8qpYGsheNFG3ZEcGnV/DRc5HoANaimD4Do7ttHJM1AmZShS0XKoxOHHILjwhtTMb0/H0rTKE95wGDwW3oaPt+AFF0Qs9rt533hRjkfHbFAMjqM8+qjmjyROCfLmhoaKXPVmqLBNUB4Ab803VPJitq/WLccjAwH8iPEigRfeKrP+yEBweO4CZ8QMXyYhzkVwKR3toWkiB1hv7MweVcAD9EhHOwEj7fnxYiaPySi4c5+Fs5HGVu/94MWSND4BCu6kJaTUVJEDcBhJNS3AFwQKAs1FoExIX+A7pCIXM8wXly9HBYGCQEGguQg0XeSae/ul94JAQaAgsHEEishtHJ9SWhAoCLQ4AkXkWpzAcvsFgYLAxhEoIrdxfEppQaAg0OIIFJFrcQLL7RcECgIbR6CI3MbxKaUFgYJAiyNQRK7FCSy3XxAoCGwcgSJyG8enlBYECgItjkARuRYnsNx+QaAgsHEEishtHJ9SWhAoCLQ4AkXkWpzAcvsFgYLAxhEoIrdxfEppQaAg0OIINE3k6vkrCLV1qudxHOnGcFannnob66OUFQQKApuHwGBssNqmerx5d7Ju64aLnBv1R/tmzZqV/yaZvynndwFqY/zOg/riCy+8kO64446+P4fuT6XfcMMN+cdTqres7tNPP51//1O+8wcffDA999xzGxU6fwHliiuuyH9csNpfOS4IFAQ2HwF/AZxdPv744zn623b33XdfOv/88zfYedj+Kaecki699NIN1tvcgoaLnBvyRxenT5+eHnroofxDKBdccEGaOnVqX5w8eXIS/cVgwd+k92e2L7744lzfL3vddNNN6cYbb8x/Pj3+0qm6gLnsssuysN11111JvPbaazNIM2bMyOePPfZY7lfd2267LZddcskl+ZrSf/3rX31RnRIKAgWBzUPgjDPOSEceeWQ68cQT0x577JH/SvHBBx+cfv3rX6err746xzvvvHMdR4TtcT6OPvro9OMf/zg7NexevPfee9epuzl31xSRc/P+7jyx8uMZvDbRn0OfMmVKFsH4AZvwsADA+5MSyHvuuSefX3nllXlmCDHyk4ZETv9mj/5i/HiONgTwgQceyOLpb9+LfsPgpZdeyqLr/kooCBQEBo8AGz7zzDPT5Zdfnh2K4447LjsXEydOzPlnnXVWOvXUU9Nhhx22jnCFyB1zzDHpkEMOSaeddlpf5ASFzQ/+znpbNlzkiJmlJxHx8EQkbtYxkbN0jaAO0dKGYEkvuuii/NNqfl7t3//+d3ryySdzH/rhrVF6IknArrvuuvWiJbKgvjqWs34hTPT7BaIf1uFdFpELJkpaEBgcAuyMyJ177rnpv//7v9Pxxx+fjjjiiGy7HAw27mdJv/Wtb/XpgTbyRSL3j3/8o8/GlUUc3B2t26rhIkfAbr/99rw0jIeISzqn0Op4CEEekeO5WWbOnj0717G2f+KJJ9I111yTU/Uta4kkkSNkfiSHMBLDiM71KWij/VVXXbWeEBK/InIZpvK/gsBmI0DkzjvvvCxyP/jBD/L2E4fk9NNPzw4Jkfv2t7+dbZKtH3744X1xl112SRMmTEiHHnpo9vZ4fCI7b0RouMgRFgJUdTergtafJ2fT8fnnn89C9eKLL6Zp06b1idatt96aRc7DAuruu+/uEzn7bf1F1w+BJXL2BkMEI33nnXeyYBZPrhHDqPQx2hGoenJEzpbRd7/73TRz5szs5VlFfec738kw+alLDkzEY489Nv3+979PDz/8cN+LC06On1hsRGiqyLlBb1kiEJ6qyBE/eY888kjef+PFES0i582MzUcvFgiSuvb0/MCxFxLECUhPPfXUOtEbnhA4bZxzmV2D2LkGMEX9F5ELdkpaEBg4AmxMJHL23rx4sCd3/fXX5yUr2xs3blzeHvJiIupXUyJ38sknp7Fjx+aXj9XtpoHf0fotmiZykyZNyp6Xt5kRqiLnIZ1bXvqV74j234icc55bpH78VhsvM4hc9PXss88m3p/oMxIiGn17K8vzsz9I4OKlhX1D/RFQb3VLKAgUBAaPAHuzdWS5ahnKFm0Ffe9730snnXRSXsL+5S9/yZ6dq6gfwTGR0/aZZ57J+3Z77rln3l6q1ov6g0mbInLxFpXgvPzyy30PFcvY6osH4kOIIt588815qevcmj4+C+G6emhpVeT8cjgxEx3HMlnd+++/P3trvDn7hIQRAbxL97Zw4cKcuq9GAToYEkqbgkArI8B22NLee++dfvvb36ajjjoq/8i1Z1JmtcQGvWCoDcrl+54uVlXs2z56o2yy4SLnIXzI6zOQBQsW5BvlQdnot/cmxucjHoLwSCOGUMnvL9SKnLevhFF0XPXkvMjgtdmH4x3G/p174U675ttvv53vob9rlbyCQEFg0wiwVd+6+R6WUPHabDfJ/8lPfpI9tV133TX5HIzNVYPzELn4brZa3ojjpoicB+XNhVA5t8wkUFWBC2Grprwsrm+0rX1IXqC3rMrV03e0d2zPTlnkORZ5ep9++mkWXqm6Uc811C+hIFAQGBwCvj+t2mLYny0kqzXbTsprg3q2k2wbNcsGmyJy8YDNumn9hkDFNeKatSDWnke9SGvLy3lBoCDQWATC1qTDEZoics1+kOECq9nPVfovCBQEGo9AS4pc42EoPRYECgLtikARuXZltjxXQaAgkBEoIlcGQkGgINDWCBSRa2t6y8MVBAoCReTKGCgIFATaGoEicm1Nb3m4gkBBoIhcGQMFgYJAWyNQRK6t6S0PVxAoCBSRK2OgIFAQaGsEisi1Nb3l4QoCBYEicmUMFAQKAm2NQBG5tqa3PFxBoCBQRK6MgYJAQaCtESgi19b0locrCBQEisiVMVAQKAi0NQJF5Nqa3vJwBYGCQBG5MgYKAgWBtkagiFxb01seriBQEGiayMXfdQdxvX+uvN56hbaCwGhCYCB2MZC6VdvUbkNt+8vvr361XhxHGnzFuTSOo6x6P9W8zT1umsi5Mb/C89lnn+V79Purfhqw9sHiXJmfMIwwf/78/OtaUR751dTPDb7++uv5Nx43Vq/aphwXBEYqAsZwf+O4Nm9j9fw4u5/irG3T3zP7Rb0LL7wwxe8O99eGTfqZ0Oo1Hfv94mXLlq3TrR+XilDbl58pfeqpp6I4//Zx30nlwE+Fuq/+ftmrUm1Ah00ROeLjId2w3zV17Be1/Sxg7cN78AcffDBdccUV+bdTHfud1jvuuCM9++yz+Ve5gBcASgEgIueyyy5Ljz/+eC6P/NprDAiRUrkgMIwIzJ49O40fPz6dcMIJ6eSTT05jx47NtrHPPvskvyy/1157pUMPPXQ9O2IXfhbwq1/9apo4cWLy0521dhA2FI+3fPnytO222+bfJla3GqPOH/7wh3Tcccdle6v2d9BBB60jWv/4xz/Sr3/96/zbxu7RM0yYMCHb/cyZM9M777yTDj/88HwNgue5/E6yUL3uNttsk21fXWLXiNAUkSNoflH7uuuuS2+99VZWbTOGH4C+5ZZbcvRDz36D1W+o+j1W+Q8//HD+fdalS5emSy65JMfLL788iWaTTz75JF199dX5R2r9UK3oWn44Os6lDzzwQCOwKX0UBIYcAQb/7W9/OxGRww47LIuW3wk+7bTT8srmzjvvzKJTvTFteHDjxo3LIjNp0qS0//77p8WLF68jdL/5zW+yqBE2cfvtt09bb7112mGHHdaJbFIgigSL48GhYK8RDzzwwPToo4/2CeTnn3+efvjDH6aLLroo/fOf/8z3ysnxg9Oegw5IQyhfffXVtN9+++XfSb7//vtTRPdz1113pb/+9a+5TdSvPu9Aj5sicn7Fntfml+r9qOxVV12V7rnnnuyh+ZFp5YQNiDw99aZPn57FzDHCAOSHohFF5KSAtvxFOk9vxowZ+dh5ROVLlizpA3OggJT6BYHhRoDI/fSnP83CtuOOO2YngT0ccMABae+9987bPnGPfoz99NNPT2PGjMlixKYI0TXXXJN22WWXdO655/bZgnyrrIjshOfEs2JbYqzC9H/rrbdmEXz++edzvRDHavqnP/0p3wp71/7GG29MvDpeHEGuilx4cu5RdC1Ceeqpp2YvkCeo71NOOSURZF7tiBY5osSTc6NEjXhZTnJb5bt5D8qtJkwReYA8MeLHa/PL2jfccEOuG8RKqf0jjzzSt3SNpapUv40Ap3q9clwQGCoEiJwJXOSdPfHEE1ksCNzXv/71LCLuhfdkWXjkkUemr33ta2nfffddJ/LCvvGNb6Tvf//72R7YxH/913+l//7v/86R58Vz+vGPf5zPpewnbNOyd6uttsqrshDGEEKCa5so6v/yl79Mf/vb37LInXfeeWn33XfvEznixp5D5Ai2+1XftaqR6BLfsGdlmxua5smFyAHC5uXkyZOz0nvAZ555pu/BiBqvzKwhWrYiD5j26frb9PTg1vPcclHfEWMPsApMFajqcdSJmSXOSzqyEcBhu05kPDD7cWeddVbebyZylovnnHNO3q6xYvnzn//ct19lvPPQrJDef//9daKXd8TJNg/MRLZGuDga7M353XffnY4//vhkCRq4Wj4effTR2bNioyeeeGK69NJL88DQD7Gtvkhg72zwpptuSkRujz32WE/kvvWtb+V7cL/qnH322dnpOeSQQ/Ly/Jvf/Ga+XvUFZCNGYtNEjhoD5Y033sgk/Otf/8rLVXto3soE6FxhLqvIM7MvN2fOnCxyQLN2D+DjgbW1vLXOR2LMLvbmvLTYWIjrVusYHLVviqrl5Xj4EaidiPBuK6QdAwEgOscee2xi+CIvbbfddsvLVTZVDcQo6lVT4vHHP/6xz9Zi7BM2Xh6xkUc4d9ppp7xqijpEy97cdtttlz05IhpeJS4IYlXk3I/7slwlyPq32rJcDU+OyPmKwgsF+3aE3PErr7ySl9bsnmfKCWpkaLjIcTOJE1HjZRmIQLEHR4QovXNB6qEJnRcRZpTnnnsug+5NEZHk2QXwkUZf9iPkCXFdhFWDcteJFHlmP0YS/RG4/jzAaj/leGgRCL6keMa5PdoIOPWJEt7bJXhWweTNVo455phsD4TGlg0c2NTtt9/eN+7VtzT0Uo9YVOMZZ5yRl6dVfALX73znO+lHP/pR9qTsn9k3V1aNsPVyIr6KcA/sVH5V5LTxsnDnnXfOXqeXjAcffHAWwYceeii/SGFfRM7KjFNh385+HqeG/XnbKlj2enb2SYQbERoucgYfN9gswPVGGBDssxE/bz8BIk/g8VF/YPi+RzlQwwu0ZI3v6/TtwYFtNqoSAijgGgjVoA1Pj4fnXrjw9gHlV9vzGEP4qu3L8fAggB8TEu7N8MaMvAi4YzDGWYylKGvV1HMY1/bYOAn33Xdftgsi9oMf/CAvAa1gYFENyl944YX1xrS69uAi6D/GPXvxUoOA2qOrjn31IvokJUQu8voTOWLlHtkfp8VLB6s2/RJeImev0blvZnl7PEOa4F68JOEQeUEZn6eceeaZceublTZc5OJuAELkgM8bAziwuLBeRMS+HFKBAJSnn346A0DotCFo2vucxIAnTmYSwheDHriimcw3c2EIru+tEXEz47s2ckSgRvsgnbHYCwgi4zlKOnQIwN6ExBv3kbeXVDjEkbFgbymCurhkMI7bJfBYeVUEg/iY/H0fBwdLPy8DfvGLX+QJO56ZyPl2zrKV9xfRErcqciZ5dsiDI24/+9nPsoPhJYJlon03tub7ubCDqidnackuvUQkkOxKwAP7Y8O+jPB21PLWklt/HAjPRLxx6Rl/9atf5eWqNj4l8QyW5/gnrEcddVR+aRnPuDlp00TOTcVbUkIWMwXwgG12duyheXDq2OBUz1slM4IyANqvcw58oKinTHv7AgaCN1BECkgEzTW4xV5ieENLILVjOIQP8EFk3Ic8xuS8hKFFAL8MAz/etJuEjBH8yefRSdUTgjsGg9t2CJ7JRG+ytjQ3xk3IPq1wHOezZs3qe/HguU866aTsPHAcqtGyz95XBC8BCRyRgltgKDVZWD1ZLhKzKPMSxD04d31CSDitmgiviceEpD2+fMDvXD7vDWccG+28QGFf+OK8OGbTJrXoX0pIiSDuGxGaKnIBVNyoc6E2Xx4A5QeZkUZetI38qB/lxJHAAY1XFqLKKBgOoSNuhI9wSpHpOPoysBAQ53HfJW0sAjgL3sKgGIOtC9jjhJEwHDxZxoRxmLyq/MjXVogx0ti7HfrePF/EKlZxXO8dDRQP1xTiOrVp3BPO4G4y4lg4VsZ2CJtI8NihfBMUe4x68tia87hG7TOpM9D7r+0jzpsqcnGRwaTVB6w9DmAYg1kGoISM8iuTH56ANz7IABqgeWuOEYUMxwGoVLsQvsHcd2mzcQTwgwfGAf/YUwtO7LPJJ2YmLfkmJ6LnWBl+IuiPcQX3ztshjKTncC+wNwmZdIgW50E+Lqyc5OPMtpJ8nPDotGOjOJQffRE47SKvmZyNWJGrPjQgIjgGLDB5ZwQOiEALcQpj4E4TM+AzJkJoBgnRI3jaBNBSeQiqXjOuXdKBIxA4ShmGFz/4sEQhdlXObCcwFvzFshXHllbayOepx1Ir7oYwqq88rhdlJR08ArA00bAXkwvbwSHOgjd2R8zYWoggQYsXRmwTL5yN4EeqX3t62jc7tITIAQHgBMuANuCJUYgbEohYVbB4ZLwFgKofLx4Yls9T1NVefwG+aziO2Gzw27l/WEY0+IkQQwkRYxQmKBNK4G3Ah6eGmzhWri5vTR386TuCPHXiepFf0oEhEJjCkpiFYwBvPBEmHrUJKmxNXRNX7JPjLITNhORcHW2ijuvIE+OaA7vTgdUekSIXgzUAAC7jMKuHWBEwswUQkSFFTABn4BM3ZDAOs7+ZSB/6Ulf//mRMlbDaaw8MztFdO7ALFGLzGT8mFzwyGIKHAzM+8dIueDPp8NJxYvbXh/rq4li+/tSJUG3vuIT6EAisAnutOBK4YVvsBt4xQdkbxY8Un9qL1a0fDoc69klxqy1bUycmp2gX14+0vrseeK0RKXIAMRuEoAE6ZnzAEyrgKQ+wDXpCFoSFMQRRPlMJEZQiitEglFdRC/zAoRzdLeBuYjHA8QdPMzlhcy4fZziCP37Uj5cKwRue1dOewJmY1FVu0oqJDXfyStg8BIx9NmLlA3OchK3JwwWs2Rq8RbwQswjyCFrwbXLCuXxePN4ihr2GvUUfzUxHnMh5eLM24AEJpADEYAegMnnKuMqOqwbjHMCARpDzIIaRMSx9q6NMFKrHzQS9XfoO3DwP/BkEA4Gxc/iKBK46AcGf+EUZLgJ7KYPBHYMIrkxsvIMwwKjfLlgO13OwD1jzjquTPVvjeYVjoDx4wi0+qvbDKcEPXtiv5akJypjggKirz+At0qF47hEncsAwI5ixgWUGQEKAUgWbESjXRiRkwHWsPlAZDDFEZrjgykpoPAIEyTaCiajKA6MInmBP8MIzIFq4CQ6Vm8RwhWvt8BoG4q4Lf43jjrARJysaPOAKvqI8XOCGrRGs4IldEbbgQ7729t1wphy3IyEMi8gFiICLTUp5BjLVZyxeLJg55AEw2lSNQhmDQYRj3kF4fkEGEhmda0WevkoYPAI4iokHpmZ7PODNAK8aSmDNkLRzji9GELwSPG1wqFyKsxgbkR99RTr4Jxh9LfHFeYC5wFYIkjej/hkWOwk+4CuyNUInXyRysdWgLAQw2rFXHl6V/5GA9JCLXIgNEB3z1gxoIHOPGQsC7AcoC4ADeOdmeQZg8FsKRV2GJGoXnoJ2CK72MxKAb6V7gCEDiWAwh9dGrEKQ1CNyIYDBmXbhnQcfZn28aY8zSxueW/BkDER7aQkDR6DKg2M4x+ceUnizIWIXXyJUMXeMZ4LmmMgRNu2qtiZPIG7Va44U3poqcrUP6ZyYETLHMaCB41ieCHgzBjGTRn60YRxA1o6RAFY9acwwMWtFWyQ4LmHjCARGgZsUN9V/I+o8vKtI1cMBbvBb5TP6MMvjiLdtIjLJ4Us0LrStHQtxHxu/69FdCiMh0jjmOROvwB8nwUscw5utWDnVTizqcBb0gWcTkzr4Cu44G86F6Ds4q95PrjBM/2uqyHlo4ADR4Ob6OjeLhHEADYgBlFnFm1CGYoaousvRRr/a8SiIXIA6TBi21WUDS4M49sLwY4+NOAl4IGjx0kddAhZeQnhzeGJE0ad2eFPPeFC+oRBtIt1QvZL/xQszWONIym4CaxjCGk84C07YD1uTRxCl6uFJdByR92YcONdfNcR5pNWykXDccJELQIHBSLi4wGMEVB+w8pGhjnx5vDZtCSKBi+WmfGKHIN5bgK5c30HYSACzFe8B5tVIvCxRzNpS+DIEaXhz+IxlKkPSRiRu+MEh3hzH7O8a6sbSVpm8DYXqPW2s3obaj4b8sAXcECDYEiORTYVXzUsmWuyFbdka0JZdxWpJeSxN2ZptoOifvWoTnMhvpdBQkQMC8TLgDWigSQ16+23IiBQhwArgGAhwnZvlGYdjecp4egwLGfoLwYv2rQT6SLtXGJvJccUQpDw3OFtWGuQMhXeAG5iHkTCo4BFPuMcRIdQHnuRp41ifJWw+AvBka+yC80CEHMM67I4N4QsvYSe48s+pgjPcEzqcaRt2SAzjGuHBbf5dD08PDRc5QAPNTELQgGe9z0gMekZhoDOYEDVg8swYEwNzrpyoiYgiioBHTsQgTlrC4BGAJ74McLO/WZy44QKHyuGPS553FX/cyhdxrFwezvDFCwxhLDwNnqPalrBkRyYlYkfYQrBwyZ7gj0NlHIzAH7+EMXjBO3sjZoQO1/qI+pHW3kOrnDdU5OKhgSICjHARqljuMJAAnUEEgIyEQYWhqUMUqwYVxhT9V9O4dkkHjkAVxxC0MBgeHoMIDmPiijYmLQbFcyOMvAdc60cdKd6i/sDvrrTYGALwFexl4wFPuMMTESOC7FA+DgRtTEQmIEtWdU1uwVFwJo02uWGL/q8pIgdQgBvcgJSaKRiC2Ye4IcKMIQUkQM08sZdjBpIXgFcJiLwoL+kX3u1gsWAIlpNwNzEZ/AQLd/bi8IRX9fAY1yFo4a3x4iM/OA3Bkx8clnTdfdDNwQMnBAr27AlvPDVcErnwwHGEA8H12Kkt8QAAIABJREFU2GDszcUkFNxV0825t5HQ1vNuUuSqD+y4nhtXj8hxo830ljGxrOGhhaHwEhASfcpHVpyXtHHGsCkscRZCFsvU2GJgSCFm6tnTYRiORcucTfVfypvDJfxNSpwHnjT7sRoicHjjhVsR8fTYW/CA2xC3yGvHtC6RA8ZgI4BFswmxc2ymiYgY4iclcBFdr3o82OuXdoPjzuTEi5P63IPhwDJ44nEzmMir4lx4GxzmVQwHc4wrnISHFraGD/aGO5MTLsUqT9XjwVx7JLcZlMgFIBtK44GBCnieGoEzk5hRAB3L1vjz1kGCNmL0IY28kvZi0ywcqlgTNksgm8/+Fj/PgAeOJ0scf54Kt8Fbla84btZ9ln6/GAeBtZSN8ahjD9wxW2N/uGJrPLta/Kp91Ja1w/mgRG5TDx6gqQdce3GOAWymcYyAmGkYijab6reUfzG4m4FFlQMb0XgRHSvDJS/BMe6k0SbSZtxX6XPDvFc5IGaWqzizr227CHaxgnJcrT9acB2UyAVQm0qByDBi9rAs5f1tCNxN9VfKm78MCm5C5ExQvLnIl+Kh9rxw03xuNoUxkbONwOZ44lWOgrdN9dGO5UMict7yAM/yJ4BvRzDb4ZmCnxA5nJmY2uHZ2v0ZiFx8bM2bK7z1TjxNFTmDitEAPGaSSNt9wLXq84XIBWeFr+H30OoZS8FbpPW0GS11mi5ygCzAt4ahVAd94aw1OatyWI6HyJMrQLeesRTOCmftNAaGxJNrJ8DKsxQBKGOgtcZAEbnN+NC5DPbWGuyFr9HJVxG5InLlzWkZA209BorIlQHe1gO8eG+j03ur8t5UkWuHN3TxKUUVtHJcDKeMgdYZA00TOeLgn/6E0EkNjGeeeSZ/N1c7SHxZH/8yorZsQ+fRt3+T50PIuEZtffnxz5GiTJ5/RxsfT0Z+NfVP0Hw5Xv0nTNXy/o79o3ZfnZcPn1vHCPrjseS1D39NE7nHHnss3XTTTVl4/GP8q666Kv/pl0mTJvUrcvfcc0+aPXt2/icpV199dapGbW+77bb1llWEipheccUVff+MpXZwhphNnjw5/1u+6lfgDz/8cG6rTm075/55jHb+PWB/5f21u+OOO9Kjjz6a7rvvvnT77bf3CX1/7Ute+xhS4XLkctkUkWP8PJlLLrkke0q33HJLuvTSS7PoEbkbbrghR56UweGvXBAywuavWxCJyy+/PHt2BOZf//pXevDBB7Ng+ofHF1544TpRn/KkEYmNvt3Lk08+mS677LL8xwHcl0jA9HnllVf21ePtXX/99etE/V588cXpuuuu64u8Tn37p088vWr897//ne6+++78Fx8Is7/K2p8YFqMYuUZRuGkvbpoiciEu/rSSpd6UKVPyXyKxlOMZERMxlnT+HMy1116bRY5wEAVe3Y033pjzHaurrxCpSIkVAfNXT/3VhYjRt/OLLroo8SynTZu2jjhecMEFfef68ZdRQrAI21NPPZWFzB8WqEb/YJ1A81SJYlUAiTlRdu/ijBkzijdXXu7kSbGI5/CIZ1NEzl5WeETE45FHHsl/gNHfJDv//PPzsT+i6e+ThZdjuXr//ffnpeFdd92VPT+eHfGzHOWZWfZanvLm7r333vTAAw/kZSHx4j05550Rq+iXUBHWZ599NrcNoSR+lpQEkmDptzoIeaGuI6/6BwZjuat+RNeKaAns/uM80mrf5Xh4BnvBfXTi3hSRY9jPPfdcFhfCZAk3derU7PHwdAiLJeusWbOyGPC67rzzzixo2vG6tHv88cezZ2XJ+vTTT+c/uklYLBd5T5a0hJFYSQmd5aW/n2VA69d1XVO/+iGa/iy0eyS+lsmEK2IYAu+zdlns3AsOdbTnYYaYS2+99dYspjy8EMBIo9+Sjk5DK7wPH+9NETmE8pQIDDHgPcXGPw9MJEA8O+UEQvk111yT97BuvvnmvNSz7BMJmn09dUX989Z4cP5KbeTz9ghqdUARTMtGnpxrusbMmTNzGyLHWyRw0W/09c9//jO/JeWVRiRyVS/R22BLcPmW3MTXcpvnGeIWafWe4ti1lMe1I7+kw2cQBfv2w35IRM6ylIgx5oceeigvPYkDb86gsj9n74r4EUTLROXEiZdm896nHsqqwsC746URF54cz464VkXDMRH16Yr2ynlvxKUqciE26nv5Yb+u2pdltzz7cVE3DMLLDuJHLP3paeeEURvPpn7UraauVb3Xalk5bj9jK5wOD6dNETmGy8ux5Is0fh+AIFmuEieb/OoSH96VfTl7apZ9os1/XpHj6pvKaKOdfKLCa/R9Wu1AUtcSNUROOTGS9idyhMl1veHl+REokfASauVV0SJ6PDnC+Pzzz+dltje2PDv347haP+7PfYlxXtLhMYCCe/vj3hSR4wFZStpzI3S8LEbvDahIDHw2IiVUhJCQETliQvws+4iTPuKNJy+JyFjmxn6aN6f24tR1LctafcdfIyYklrshcs55hvqwdI1lMCFy3/J4hM7dm3sUeYOWtvJFnprriYSYV+q7ONe1NNYH71RerZg5j1iMrP2NrHA8vBw3ReSIgLeMyCVgNui9cbRnxugj2i9TlxdHpCztwvilBI5gqRMDhRDxjogiMZGvXPRigfjZ+Pf2Vpl+XJvIEi3nxJRgiUQ1PDbXJ4hRT59EML59i5cO+o2laVw77jvuMz6BIczqRL561fPIL+nwGkLBv33xb6jIMWCDRRpLwshzXhuViYw+jqN+9LOxNPqLOiE41f6irCpcUc+15Eed/u4l7kdae1xbXz+1MdrVprX1yvn62BVMCiaNGAMNFblG3FC9fYTA1NYnYLV5VYFRFueO+6tf274R53HN2utFfiOuUfooolDGwPpjoGVFrtXI3JCYbSi/1Z6v3O/6xlUwGRmYFJHrZ4lZBufIGJyFh8JDI8ZAEbkicust7xsxsEofRaBGyhgoIldErohcGQNtPQaKyJUB3tYDfKR4E+U+hs+zLSJXRK6IXBkDbT0GisiVAd7WA7x4UMPnQY0U7IvIFZErIlfGQFuPgSJyZYC39QAfKd5EuY/h8yiLyBWRKyJXxkBbj4G6RC6+yi/pF389pGBRsChjoDXGQF0ip1IJBYGCQEGgVRH4P5u68e7u7lRiwaCMgTIGWnEM0LdNitymRLCUFwQKAgWBkYxAEbmRzE65t4JAQWCzESgit9kQlg4KAgWBkYxAEbmRzE65t4JAQWCzESgit9kQlg4KAgWBkYxAEbmRzE65t4JAQWCzESgit9kQlg4KAgWBkYxAEbmRzE65t4JAQWCzERgmketOqWdD977Bgg01KPkFgYJAyyHQUyMB3fm8GdY/TCJX+4DNeLSWY73ccEGgrRHYsJV31zz3hmvWVKzrdOhFrrsn9fT0pK4cU+rq6XXqQvYa+3h1YVAqFQQKAkOAQE/qSt09K9Pq7p70yuLV6ZqXFqVJjy1KFzy2LN38ysL0zuedqTPRh46sEY26pSEVOULW0b06re5ZmTq6V6U13StTZ/ea1NXTnbq6e1I3wesJuWvUI5Z+CgIFgeFGgFWv7ulK98xZnI6//uM0fuqytMv0zrTLRV1pp+kdacxFa9L4acvTCTd9lp78bFla07M69fR0pY3sa9X9SE0TOR4ZwerON5pSZ1qVPlz1Vrr2jYvTX575bTr5oR+kXz14bPrTkz9P0187J7207Im0umtFb5vUnbpD7Abo2rlmPaG/ev3l1dPXYOsM9fUGe5+lXUGgLgT6Mb3QgZXdXem8Rz5JEycvTmOmd6RdLlqd484XrU47T1+VxkzrTjtNXpPGTFqdJkxdmv717KK0qmfNWqHbPKlrjsjFwxK5ju60oGteOvvxU9JBd+yS9p6xVdrz7i3SnjO2SHvluFXaa8aWad87t0m/eOiY9PKyF1NHN7c2lrF1wZsWL16cKxKODz74oK/RmjVr0osvvtiv+/vxxx/31XOwevXq9Oabb6auLjPIpsMbb7yRXnvttU1WXLZsWRJrQ0dHR3rvvfdqs8t5QaB9EOhJaXVPT/rHgx+nMVNWpjHTOtPYqWJHGjPtizhW/rTONG7KmjRmyuq069Ql6V8vf5Y6YumaNSWEZWDwNF7k1npS2RPr6U4frfwgffeO/dO+s7ZdK2pbpL1nbJn2mblVTvec9ZU04Z7/THvP/HLa6+4t0jdv3yXdPveW1NHdkbp7OlN3T+2m5PoPuHDhwjRx4sT03HPPZTH56le/mj7//PP0yiuvpA8//DCX1XpN/mzMmDFj0kUXXdS7RO7pSfrZfvvtE/Gr/lmZ2rZxB7/5zW/SKaecsk5d7ar1HV988cXpoIMOimZ96Zw5c9IOO+zQd14OCgJthQAnp6snPTR3RRo7dXEaN7knjckC1ytoY6d1ZGEjfDvn2JHGT1mY9pjyadplSkfafdon6Y3lnak7bd6ytfEil1fRPam7uyct7pqXvnPHAWnCzK+kvWdu2SduBC6L3Mwt016ztkh7zv5yGj97y7TvXVunnzxwWLrz/VvSiu7Fqbtnde5nY8QTlZNOOimLzQUXXJCeeuqpROTefvvtdNxxx6Xbb789HXbYYdljmjt3bl9XK1euTFtvvXV64okn0qGHHprjwQcfnEWOYMrT7k9/+lNuc+6556bjjz9+nThhwoS0xx57pB/96EfrxH//+999QseTHD9+fPrLX/7SJ6aET3z//ffTTjvtlPuvCmPfTZaDgkCLImA8c3SWdXalY65ekMZO7ky7Tu5KY6d0rhW6XoHjvY2ZtibtcPHqdPD0+emjjq703PI1aez05WnM9BXpZ/+el/fvresG58c14e/JuRFfvNhk/NNjp6RdZ/1nFrk9Cd2MrdO+d2+TBW6vmVumiby4WV9KB9y1Yzr9iV+kxz9+MC3ofCNd9dqF6Rd3fD8t71ySerx+3Ui45ZZb0oEHHpg9OCJ33XXXZZEjbscee2zaf//9s2CNHTs2i5auEHDZZZel7bbbLi1dujR7gLzA/qLlq/r33ntvuvLKK9NVV13VF7/97W8nUX416ieuc88992ThfOutt9JPf/rTdSLRJMjyzz///I08ZSkqCLQGAqw1YlfqSS8uWJ72uHB5GjepJ+06qSftNqk7i9zO01ekXaZ25+XruCkdadz0penVxWvSsp6OdORl76QxU7rSmKmr04QLl6YFK7xtrW8LqT+UGu7J0VuvgZd0LUoH3TI2jZ/5pbTnjK+k4x44IB111z69IjeDV7dVXpr++bmT0stLnkrLepalhz6akX444xvpwLu2SPvftl16+pOH82zQ343LIz72xAjRz3/+8zR16tQsbEcffXQSeXI8JXttjl966aXclb2wbbfdNguMPpQdeeSR/UZ7fer0F3/961+n0047bb2yuF/X+frXv5522223vBT+85//nKrxd7/7XV6unn322enqq6+OZiUtCLQsAlWB60wpXf/K52ncpK40xlJ1cnfafdqatOcly9OuU1akHb1VndqZdp2yOk19/NO0OvWkcx5YkMZNXpnGTFmTxub9uTXppcVr8tZVqvOlYi14DRc5e2idqSt91Plh2ueO7dP4GV9JE2d8JX3/9gPSwu556YyHf56+N2vfdM3rk9K81W+nlT2L02uLnk6nPvjDtN+MbdLe92yZJtzz5TRh5hbp+vcuTZ0bUHCiI1iuPvLII+kb3/hG3kt75plnkvjss8+ms846K4uc/blx48YlPz6i/m233Za9OHn6ef311/P+nT282kioQuB4hvbQdtxxx/S1r30tbbPNNjnKE+VVw4033pjFdNddd83XdX1L5ujPCxJ9xbNU25bjgkArItArcr6I60lrerrT3x9blMZm7y3lFw6nzPo0fdbVky59ZkEaN3VlGjO1I33vps/S8p6e9OyCFWnCBcuzwPHiCN1OUzvS7Lkdqasnf0E3KEgaLnLcSjc0d817aZ87tkvjZ26RBWvfu7ZIryx9NnWtWZOWdi9JnZ0d6YOVb6XJz5+d9r9t6zRhxpfTXjO3TnvO3ipNnL1lmjBzy3TDexeljrUi1ytp6z+jt5b77LNPOvnkk9OsWbPy8vGII45I4pQpU9Lpp5+e7rvvvix2xITIqc/z23nnnXOHRCiEi1BV42effdYnSt6E2n/71re+lcXw1Vdf7RPFE088MQtt9Q5POOGEJOrftc8777z8AmLVqlX53EsR1wrRq7YtxxtHAI9+z7SEkYUAO7VdZT9uTU9nOvfxRWnc5O40blrKLxn2nrYwPTZ3RVrR2ZF+dM3ctNf0j9J7K3vS/DUd6cAp3sCuSbsQuKlr0s45dqR75qxOXT0daxfCA3/eJoicb9w60oKuj9J+t+2QPTle2fiZX04/vfOotGbN6rSke2m69cMb0mEzdksTZv1n2mP2l/K+3cRZW6YJBG72FmnizK3SffNvTd6tbEjgiMPf/va3LFZEbsmSJWnGjBk5EjyG8MADD+QlrJcJzkX7dtdcc01+uwoyXp89M0vT2uhzkhAhqTevPMCZM2f29ecaPDkvMarhhRdeSI8//niury2P0h7hz372s9yWJxciV21XjnsRqOLOoyZqkeeFju0H5yWMHARsV4XIdXZ3pktfXp5fNoyb2pV2neplQ0c6/KJF6ZOV3em9lavS7Nc/TSu6e9JJt81Nu0/rSrtMW5NjiNyO01enl5f5yoJv2PvyAeMR63nyhovcWh1Pq3s60vfvOjRNmPGV7MlNnLFFmnD3VummD65Mx886LO1z53Zpt1n/b9pj9n+k8bO+lMbP9hLiy2nC7C+nCbO+kg66faf00eo5G/2ExAC3VL388suzJ+d7OC8Y/ud//id7bp2dnemjjz7KS8Yzzjgjv5wgZu+8805+UaCu4FMSb1q9iBBjGbrVVlulRYsWrYfjtddemz2/Rx99NAubfiZNmtRngNHA/T355JN9Ikcw7R/uu++++V5C5KJ+SddFAH68Xhz6JvHTTz/NGMdkJc9b8iJ06+I2XGd4ENkdZ+HNt95Jt78yP+0xeUkaO3VN2nVKZxo3OaXdJnelk66fm8Wto6sr3fXOkjR++pq008WdaefpHTnmD4andaTdpi1MH6/qTB32+ivfzg6zyLm8L1u604vLn0r73LltGj+T0H0pjZv9pbT3XVul8TP/v7T77P8n7T77/6bxs/8zjSdsa+Pu0plbpsvfvnDtP+3Q34YDUHllPDmfj3z3u9/NQFsi2tD3mQbh8inI/Pnzs9EQG2122WWX7FERqTvvvDN7WvoLIyJ2vp3rL9jv06+3o3/961/zB8TaRnAsVkUu+pUKsVyNNqM5Deyk+OGV+47QhOS4ip06zu1x+lQo2o5m/Ib72XHgBd+CBQvyhGRiWtXRkZZ19aQjr/w4f+Q7bnJX/lZu3JTutNuUNenSl5akpz9blfab8mH+5107T/e9XEfamTc3tVfwfnnLgtTR3StwXmSEuEVaz3M33JPLZp4V12ckq9LFr52b9rl9x7TnXV9Je8z8Utpt1pfTHjy3WV9am/pGjvfWG8fP3DKd+siv0vLuz/NArmcAh8idc8456dRTT82D30e9Ps3Ye++9049//OO8nHz55ZezkNlb87mJPTnGQuT0MXv27PwZyfPPP59Tb2BD5NwHT8IS9Le//W0WOEtP0bV+9atfJZ4d76zqXRDeeMERzxJLYPdjL7CE3jfllqQw5qERL5MSfuR/8skn2QvmJcBRVGZfVF4JQ4tAlQOTjcnIKgl3xjduli5bkt5+Z2669fWFaeK0RWmXKd1p3JSetOuUlMZNSWm3qZ1p/JTVec9u7PSeJMa/ghg7uSvtPWlJevfzzvytLC9uxIhcQJ2Vlrp3r0pXvjc97X3XFmni3V9Je8zYMu026ytpt1n/kXab+R/Zk9tj9n/mf+r1zbt3Sv986cy0vMs/3DeI1366UaPgfddY6zkRKJ+M7LXXXtlzA7g3m4TMG1HenCXmfvvtl959991sNH//+9/zkjZEzoe/vnnjCR511FE5hsgh1OcezgniMccckx566KE+Q3v44YfzCwnX5925tqBdfyLnXnmJ+rNXOBpD1UhwYHKwlPeih5GYKAgdb84bb96caE9U28DXdgIxLGHoEAjufGOKM04DL85kw9ZMSK+//lp6b877ac2KFemF195I5z8yP42dujIRr7FTutOuk1P26qRjpxK37rTL9O60y9SetMvUjjThghXp2peX5n8S5nojWuQM2LdWPZ/2vXOLdMSMCen79x6cDrl7TDrgju3SAXdunw66e+d09L0HpL8//fv00ep3Upd/ztVF3HpdUwu7cE0jjQEeYL/xxmv5XzYY8GZ9UdmyZUvzkvCNN95MixZ5qbAkzzTKbFoTRwbmw2GEeVNrQ1ueOrfeemte3rqeTW8eXnhhyqsh2tiLcByB+37XXXf1GaZ83uBNN92UX14YHKMpwE2EI7wJFOOIN864gyGPgMDBhwAq18Z3kVV8Hccb8NGE41A+a3AGazzMmzcvT0IhbJGPLxOTyYh3R/xwNn/egjRvybL054c+SntNWpnGXdiVvTkenTh2Sq/I+eddlqm7XfJpuvLVRWnN2pcYLC10YDDP3fDlatxEFqS1S4obnr48nffUaenTTpuNq9OSniVpafcn6fOez9LnPYvSmu5VqbOrM3V18t7iFXSNuDGOtd4R0Hl5K1euSnPmfJANIsQF4ICdM+fD9N57c9JHHy1ICxcuTqtXd6Rlyz5Pr776WhZBdeIf7geJUssf5OnHuRBpPFt/qTraRDvnkRfH0c75aAuBAUEjSkSMeDkPPEw0RIwRMRZYMireN4Nxriz+2EG0Y1SxtI280YZvM58X7jxrPOCNMyFPNCnhCj/4xAXObDv4/hS/7PTtt+amVT096eFPV6djr/4sTZy6Iu062YuIrvxPvsZNWZkmTluevn/1h+mFlR35n3L5E2z5TW3F0RnMczZf5Hq609LuRXl/rmdN7z/Y9RdG/NHM3jTl1HHELGaVB+s773tzwyN7K4vYqlW9ghTG0mtM3dmD+/zz5amrqzu99tob6a233sne3Jo1nem9997PhoUYhFQNw8e6iENgNb8ecHuvvXaJvVbkqnn19NFudeL5GYkXLSYRE5L88Lg9s3N1LHcEy1JLoeDDMY61YTzqR+BlE84YA5Ff0sEhEJzB2p607QJeGn44B6IQ9dgRx8AqSF17c8TOpPXRR737qgRSuTadPd1pQUdXuuqZ+eniJz9OlzwxP81+97P0UVd36iBsnauy/eVr1OjAYJ6ouSIXQNhby6LR+81Zr5j1LklD2Hw8+EV+fG2z1pvL4taVPv54QXr99TfTggWfpjnvz01EzKz+yiuv5QjAmGGIV8z+H3wwNxHDjg5exKL08su9m9XqIiTIqk0HCmht+9rzgfbXqvXjueHr20B7pKJBb7DjhuDx2kLw4lnVY1zqOGZQlj54stejb54Dg6kNykoYGAJVzII3kwXPGD+8NpOKiQRX8sLLjrYEDZ/4NinhDj/esJqc5C//fHkWSgyx8478l8F7v4Hl8PR+D+ufb61O3T24XessjGSRGxjU69YGHmBEx9zdt956O33++Yqct2ZNR3r//Q+ysH3yiRm8K82b91FatGhJn2BpiwxGYqlK2Hh/hHHJkmW5rv5eeOGlvhmmehdBYDWvHG8YAXiJ8I5jgmagyxN7J6RXsngxBIZDyIJn7cJgHMdLB14do2FsUssiZbVBmxLqRyB4quIfExFuiB282REPPF4Kwd/kVW1PzHCsnbp4xTfupCGW+VprhSvutJc1/48YJY1Jm+bJbc7tLVjwSd5Hs8yM5ag9OKC//fa7efm5dOmyLH5Ll/Z+ahJCGMBLzTyxV/POOzZBe/freHOvvvp6FsaVK1dnT0H9aqg9r5aV4/URYAwxkOOj3eAiljxmexwyljAs3rZlUNRVbt9HOUPiGSgjikSOJ8GQiGfhaH0eBpIDP5MFvnjK1QnKMbzlEyneNA6Cl/DcXE8/xAzP2mnDG8elfHvfvHACapxk3rxYrLG5gdz7QOqOQJHztmxR+uyzhRkknhrPjciJ7777flqxoncfbsUKezgf5hkA+MpWr/7i7egXBuOfVK3IS13C6S1rLcC15wMBsdTtHbAEyOA2uTCMwJSBxGQjjxEwGMfhueFPkEcEGQX+9MkzCKNSL+oW3DcPAVjjxWQCax5aVejwRJTgHQ6DNmKUxbl68tQldngjkvqu9rl5dzy41iNG5IAlSC0/LS/ttYWxAE8ZgZo712Zmr+hZgkbZsmXW/R/mevJEb+MYSa8A9n5aEtfpheyLzz16z8v/B4MAbngFPo/hnVUHtjIDngDihIiZ4YOjKFNPUM/sbxM7vIPoT3nUG8x9ljbr4kfcYE2UTEawjcjDg3/wFEtS5cp8HhVcqIP/Xlt7N7+IiLJIhwv7YRU5n3bwrCxzLCXtl1lGevvp05CFCxf1AQ6oiF4+xKD3MsI3cFEG7DiW8uzsDVXzhwvsdrku8bGMZCAwNrjlES+CFdxUebC85J3hwaxPCKvl8gV5jnlu4UW0C25D/RywDExNKkQq9tJ40MQND/bPaj+bina8M3wK6tkqCI6CM2WO9W0sVHnNDYf5f0MucpaisQfj2QHy6acL8/LFW1NgeQsqvvmmt2vripZye3aWs11dPXlfDbiEj0C+9NIr6cUXX8kvJnp6ettqIwb4w4x5y10edsQLfsEZDhkK4wkPTb3aTenAXJ3Ya7NUZQyEzz9t40UQScdVgQzjiuu2HHDDfMNWMSYKAZYizOVxLPBlohLx67wanOMphJGzEC8WeGyij+rjrbf6Vf5q+6v2PZTHQy5yHpwgBQBhBL0keDvXnT/a9aJg3rz52UtTN6L6BJCXZ6+OJxhCCDjl1brRv7SE+hEI3ALT2G+JfBjHsZSIMQLCF58NVHlwzNNTj5fGyKrtHdf2Wf/dju6asAueqscmovjuMLAOjIOBbzSCAAAgAElEQVQbPOALv7FcDTS1wVe8MAivLvqqprXXjz5GQtpUkQOCPTWztI1LswLQiBz3WLn9NR4Y0bLPZkaxH7d8+cq13tzbeabxltUbVW0QRNh6P/D1Fyp6l7IA7S3rrTMSAG61e4BvCBYPy+QTyxn8CWbz8L6U8xh4acTLuaUsw9CXWV5e8GaPJ5aqVWyUV2O1rBxvHIHAzT4Z74rNEbfw0OAv4o8thmfGc7aHyrNTHpMTsSOQEZThVzv2VRvi+rX5I+W84SIXD8wQCJaZHUgABTqgLVd816bu8uUr1gpf7wsEIC5evDR/8Kvci4YPP5ybwfVSgaD1LmXf7vPy4pq16UgBeaTfB9yEGMyxH+bNm8koljIMSF38MQxixhhwJjIEHMcxsSRo6mhHDHl7rlMbgrva/HK+cQTgxoEwEfHK8OU43mibbOJNtTycmKC0wwNOwqu29RDetnx1cI33EMaN383ILG24yPlwMFxfswZjAN4XXlzvv2fjzXmLyiCAScB8EuJYHi+NmNnD+2j+guzx+QCYyCHHC4XeumUZurlDiwgZyLwsezYGNENhELg00HFowlInOCJo1a/ftWVwPAoGRfSUm/BwaixIS9h8BHAAWzzx3EweeMMPWyN2PDO2EqKmjYhr3AWPsRdK7LT11jRETr2oq34rhoaLHCAMZiBzmR2HF2dWRwgivDhYsqR3SaNN71vQ97MHZ6+N9/bqq2+sNZCePNt4+0rkGEosUVsV+JE0WGDIGIgRvmJvLfZrDHKGoY6N5l78e703Iohr4qbcxEbs1CGODEZ+hMJXILH5KYxhLxInkxXhI3a8cXZmYuJx4xb2omMviETn2piQ9GNi4/nFxNQOfDVF5AJMBgN8xsJtjo1Lyx8D316cFFnelPrXDDw8/3ph7tx52ZOLvnr/yUfvwIi8kq67j9UIPHBB5AiUgS81qzMYxlNrMDw2vDKm8CriPrBVPd58sy491CIQ+HIecMPjJlA4IVhsjXhVvTkcczxMXOpqpy5bjP7UEZ23etikyIW7Wm8KLECbJRhIbIASOwbBWCxnesGdn2ef3r678v7bp58uystYAtkbO/JbVN7d+lGd/vJr86Kvkn6B67pYxGC3J2NCwlN8boBDXgJOcUX08BxjQnl4FNF/lJW0d7nXLBzsmxIptsbG8Mh7NumIvDJlsb8a9xF18FjlMsrbJSXQmxS5UPaBpoAzMxA2omeWB1wYiuWNJeqHH87Lb0rNGurbp/ti9uj1VFp9Jhnp9x/c4oBBSM38sQxiLPjEo7rKcBntCJs2YuSN9Gdul/uDd+BvxWRysvwMW1Mm3yRlCStoU/Xa2gWLDT1H00QOkAyGV2CfhodA8JyHQTAin4tUAdeuhOFDADc8M5MQrixpYr8NN6K9VWVVroLTELrhe4LRdeXghJCZjLxs4IHz6GwvBC9ELpasEIp2owGtTYrcYEEAImC5xbwABNg3sFRFhBmGC23/rWosG75erfht6ry8xdswlhsuwYX9nFiueNFgciJsImMierWcOa/GDV+hlDQDAR4cbsLjxhn7sq8qL7YegrdIm3EvI63PpoocTw3QQoAN3PDcyqw/0oZD7wxvEiJyDMVLCJzhqrpEHXl3PrrviMDZf8NTvOBzTODCzkaTsFVHQ1NFjrdmk5qoWQJJQ+AAHrF6Q+V4eBHASYicPRxGMlqNY3iZGNjViZxVky0iqyXCxtakEUcrj00Xudi7Ge1AD2zIDk/tmHQYTHVCGp67KVetFwG8WTXZhwsOR6ug9YdZ00TOxaqAV4/7u5GSN/wIVDmK4+G/q3IH9SBQdSIKd+si1lSRW/dS5awgUBBoJgLErYT1ESgitz4mJacg0JIIFA+uf9qKyPWPS8ktCBQE2gSBInJtQmR5jIJAqyEQy+tme6BDKHJf7Bf0bh3EuR+S9l9+U+F/zfr5xVYbA+V+Ww2BtUM6RnbvkK6etdoDbfx+48myPcfJxpusVxoC58VJiN56lTYzY8hELh6mV8Tyjy72PhSE4pu5kLtBAraZWJTmBYHNQ2Dt/Jz8tkh3V+pevarN4+rUs2Z16ums71vK0ABp/Jta3/T5iNmnZj6DaYbQNV/ksob1pA5fzK/4PC187sn0wWWXpjf+8uf02llnprenTEoLHrgnrf50XlrZvTqtMUB6/bnNG3ANaF0v4PXWa8AtlS5GOALGQufKZenx3/4pvXDmWemFs85Kz//17Eoc6vPqtes9rv8eX/jb2empM/83rfpsXurp7t87gUlE3/L5AwL+Pbu/muIfC/hXUf5ljX8nHX/mq5E21WSRW/twfsRk1oz0yn/9V3r38MPSB4celD745gFp/mHfSO8f8vX07rcOSa8c8a304bWXpI4VvX95tn+4GjfCA/RNpfVcMfqop26p08YI9PT+xkjHx/NTz8LFqaezJ/V0JY5d28burpTmPPloevvRBzfqhbERYubv2PnngmEzsUyN1L+L9rsTPkhXpxGhSSLX67fnB+lak966/PL09uHfSfMOOijNP+SA9MFhB6S5hx2Y5h1+UJpz2NfTnMMOTB8cemB69/Cvp7f+99epa3nlF+4H+JyuaYbwxwD6CwGcND6g3FCa778CNBfbX1Op9hF/RDL+uVp/1/RvPrnk6vQXor/+ykpeiyHgh4A+mJN6Fi9NqTslItC5dhlrKPuzEdLO1JM6c5pSx9o0n/cok/dF+br11s/Xf9Tp6lnbX/QTaVxjvbq9/cX1Oirl0ecX6Rf7554hP09PSnOeeTy9+9hDqbtiK8Fa2BCBiz+3Vh3vUa4+O4wQf/2mWh5lA02bJHK9t+F3T/9/9t77z47iSv/ff+f7y67XGSQkoQTKBIEkMgvYxmFZZxZswq6NTZwgIWyiDYZ1AEzG2GRjMAhJKOcwmqTJOdzUz/fzrjtnpudqsuaO7r1zhldR3dVV1d3Pc85Tp6r7to7+/o86cuV6Hb90lY5fulIn1q1SNaK2/gLVrL8wiNzxdReIdGIgP/azW5Xp7wlrdQHJSdwVQvKFL3xBzz777KitAO6JJ57Q/fffP2b6wx/+MKyPp59+WhdccMGwsrVr1+qtt97SLbfcooceeih8eWVYBSkcnzdv3uAni+wnU4jfWOKY24/vFwECiFz1kMiFKG6Ey8adg3ggKiFFQmCC2NDHoFhFSrEvyrLbtAvCyD7lCOLgMatDTt/ZfLDtwD7lQRAjKW39DOTpKDN4zqF+s6KWeyv4UtU2E7khkbJ6HLdPdk3G1mlHRDcdv53Om8hlMmn1NVTpwNXrVbP+ElVdu1TV37lEB797hfb99/Xa/5Pva9+d/63D99+j6sceVv3TT+r419aoat2FqtpwkZreeSH7A+NxVI7I6rbbbtNPf/rTkH7yk5/o3//933XVVVeJbdKtt96qV1991XAP+e23365rr712xLRw4UJ9/vOf14033jgYVtNo3bp1uvTSS/W///u/eu+998LIs379er322mvhM0SXXXZZWG+Ik8nnps4//3x96UtfCn3SL4lrtPT8888PRofDLtJ3ig+BCYpcWpH6eDiR7lcmlVQ61a9UOq2O5hp1HT2m1uPZT5I3vP26Ut2dSmcSSnV1KMr0BrFDtPrqqtR5ZG9od+LlPyiTaFNnfY1S6aRSUVKZVEaZ/l5l+roV9faqZcdWte3dpUxPv6LefkUs9POPt2dS6u1sVf/JOqXTvdrz5K/UVXNcEf8M6NH9ykSpIHpEbrl/cZEjqMn94zjrb3w4gO2J/lGXaS0fi7Cp7ETb5tbLj8iFtYm09v3P7apfv1ZHL1+h3nfWK930jNKd7yvd8Tel295Xuu09pTs+VLr7I6W63lHv+9/QoasXqerSNdp+w3ole9uGhbC5F88+XxpGNBC5n/3sZ0GA2L/mmmvCPmVz5szRvffeO9h8NLAZNR599NHQ39VXXz1sXeCTTz4J/Tz88MP6zW9+o3fffVevvPKKVqxYodWrV2v58uUhgpw7d26YLnMyzsN5ly5dKtpv27ZtWNq6dWsQupdeeskjukF2inxjHJEL0zwW4tN9OrLxXm1ZeZ52//i/lGhBYNLavfkx7brxP7Rz5fnqPXRQn112uZJNDUo0NujTb31HNR9vUSqITlon7rtL9S88p0yiXzvPX6meqmN68/IrVffxFvVketRdf0RvXH+NPr76Un1y9TodWHauDq1crE+uvEIfXbFOb197uZItzYr41+9qj+qDtRcpUV+n/evXqnfXdu286y6deGKjMmn+ZbzsE9Rc32HfIrlckeMYQmUf64xPRyfCMu0/++yzwU98TaTNSHXyI3KEz329OnDFNTp+6WodXL9Eia0Xq3PnCrV9tkgt289V27ZF6ti6WO1bF6l960K1bz1PiX9eoe3XzteRi9fo8Po1at69RZn0yKMDAJBM5GytDEMhavrTn/4UjgMsIhMXuZGA4KODq1atCkKGePFn52D7+uuv1x133BEWThmZeEK0YcMGLVq0SN///veFYBGWx0edl19+OVwLkd/f/va3wcT0lr6Zrn7xi1/UX//617A/0nV5WZEhMKbIZSMZbKT++ce1/YLlSu7frxM3fV+HfvifyiT5t0kSijra9Nk3vqXeg7u0Z/2l6tvykT69+no1PP97JTL9SkZJJZtqte28c9V3aI/69m7X/nOXqn/3J+p8/121vfu2+vs6Qn8H//R77fnRzdpx523ase5i7fqPy7Ttjp9rz09/oqo/PhMiw0xvtz66+HJtX71cn6y7UNXnfFFbL1mlTy5YqQ83XKDa119SJtOvzOCa8lBEhh2PJXJ8/on16LgvTYZR1vGYDdF+qn/TL3LhWiIlWxt1ZP2Fqr50tY5edp5S29apd88y9R04T/37l2XTvmXq37dMffuWqXfvGiU+ulSfXj1fe1cs0+G1q1T/0ssjPpY2wALAVVUhGiKiYip5ySWX6N/+7d+CsLFeRvrc5z6ne+65J2BkYGFoCKJNLe+6664QidmTn/hxGvKvHl188cXhXJyHhVFCcKbCP//5z0NIzrSTafCbb74ZSGGdjojwrLPO0uWXXx6mu/TBPtdB5IjIvf9+9smUXdtUyfR2BYDAmCIn8ZZFmn8t6+oNan3tRSXSvcrUVWvH3Hnqa2zQsaee1CfLl+mjiy5R575d2nXJWtU/9ye1vPeRUm2tSnX3KkqmdLL8AR1at1afVVZq7zVX6uhXvqK9116jgzd+TZ9943K1H9utKJnQzvvv057v/pe2bb5PB268Vru/cYW2VdylQ//1de247x5FUZ8SrXXqO7xHfdV71Pzkr3T4P65U/5FP1Xd0n/qO7VP3sSNKZvhHxFkNHP4XfHBgTW6kSI6HgPa5tanYNyJ5uk9a8yNyvOxXfURVl/Jw4QJVXb5cmc82qH/fSvXuX6qePdnUu2ep+netUv+Rb6mn4WFlWu7X1h+s1bbla7R79XIdefxJRayOjvAHYCQiOda2Hn/88RC98bAA4bj55pvDPhFdfLpKGyI2Ww+zHCHkgUVuuuKKK8LZaQfg1Gdk4bPgbFP/y1/+spYtWxYE9s4779SWLVtCRMeozFSUhxUIGsIJ6V/5yldCn7z8yLV++umnpzVSjQCPF50pBMYROayZ2cn+lWvUt2VbWF+Levq0a/5Z6th7QEd/9nO1v/661JHQZ2X36cCc/0+7lszVnnPP0scrl+vDn92mZE299p27RPs3XKxMok+9x49o+8UX6cDtt6m77nh4EZm1tnR3SjvuL1fV3Xeq9bXf6cSPvqn6O3+gjj+/oMZbb9Gu++9XlOnToWd+p51XrNPB5fNUPefz2nvZau29aKkOLpqjXdes1bs33aAow7fqpiZy/FsT5q+TpYUZFrO00/mbdpHLSlKkdENNEDmepB4bjOSWh0guse989Vnau1qdx29Qd919StXdq4++e6G2rlijXauX6cBjvwmLpyPdoIFmIsdLhfaPdyA8zzzzTIi0iLZ4kGDTVdr94x//CNEWEZelr3/960GwmFYynbT08ccfB4JuuOGGIGYIGtPh3/72t+EfCmGquXLlyhAR/uUvf9EPf/jDwSdCiNqLL74YIrdvf/vbIn3ta1/TV7/61XBLkE9ffBqeuv5XAghMUOSOrd2g3o8+yYoc/2DQwrnqrT6hfT++RZ+et1T/XLhUfUcPaPsVKxXt2antV6yXOuqV6U8o3d+l2tdf0Jar1itKJNT+4Qc69LUbtPu6byh15IgyyYQy6ZSSPf3q3b9bfft3qH/np6r92U9Vd98d6tv6nvacs1D9uz7KPvBoatfJ//udji5eqO4XX1Xn8Sr1HdyugxddpKqf/VJ9J2uViXrDA4hchvCnsaar/AtvBAfYN3Un+2f/HOZk28Xr50/k2pp1eMNaVV+KyJ2v9Pb16t2zQj37lgwJ3L7z/986wnL17l2s3j2L1f/hefrghvnavuJC7bhgpWrffkeZ5OjOD2gmchaRkSMcREhWhugRYdncfiSwf/GLXwSRG+kYBBEys4CKyPEPutAXfxDIuZiyIl4mikYq63KLFy/W7373uyC8iC/rezwR/sY3vhH6Y7Rimux/JYDAGCIXfqE98FDu+E9v1/E77gyvStW98GftvHClMl3d4Ylnprddn1xxqdI1tdp65cXK1J3Qzh//QI1v8YAqoXQ6qf7GWn1yxQZFvQntv/2nqn3iMe34xteUPnpAda8+r6MvvKxEa6123n2rDjxUpn2bfq4jd9+tqofKVfPK82p++QV9uHi1Ej0d2vPEo9p1+22qeuLXOrFogY7e9TMd3nS/jq5aptr//h+9/91blEwxXU2cQhD+MpbIMZCz1EM984lTOhmlgDY8eGBGdDp/0y9y9uJjsk9br1yv6ksv0LHLlmbX5PYuV/f+Jerde1427Tk/5H17z1Ny9yKl/n6+/nH9giByH1y4Sm3VR5Uc+JnXaDeJyCE8/GtETAmJ3Hi6yjQVcEiU85R1yZIlI44mgGlrcmzn/rFuB0EsoHIu/uUx3tymnDe0FyxYIJ6qIn6vv/66Nm3aNLjWh8hdeOGFg/v0vX379jC1ve6668LrJ//5n/8Z1uxyz+v7RYjAGCIX7mbgZ46ZnpPavnqldi1crP1nn6OuD95TxL85nIwUtXfq4zUXKGqt12eXXayON17R8eef1daL1yhVfTA8DU001mrr5evV9s/3tP3CZcp0N2r3t7+u5I7tqrr3ftW/+royfW36+7Ll6j+wQ/uuukz9bU167xd3aO89m9X9xpv6ZM1KZRLtyqST4Qlq1ycf6pNLloQpcKovqZ1fv1bde7cpSvVMOZLDb3bu3Bns3/xoIqzih/gua98j+eRE+rA60y9y9MxoxUuAH32gqnUrVL1+sdKvr1f3X5ep553F6n1nqXrfWZJNby9R15sL1fe3hUq8ukEfXb1YO1as0mf/+xOlEzxJGvhCiV3xODmgEln9+te/DiCx7kXUdd5554WpZBwwtu0478QR8dE+9496JKI2RI4nqkx/eU2FqBGBQ0CZLvMk9YEHHhgUtTfeeCO8J8cvMDhXbiKC40HE5s2bc0/r+8WIwHgiN/BLgayTpCWiFP6xIB6EZTI68sQT2rdunbZee4WSJ49px3lna9t1l6mraq+q//Skdt77y/CUs7+5WX+/6kp9smGd2t9/S5lkSod/XaaPz1+g7RdtUKatQd2N9dpyT5n6ag7po+Vz9eHaVdqydrU+XXaBMo012vN/f1Kmv19drdXa8/WrtHX5XCVqt2vLPbfo0E3f0MeLFytR3xTOl1ZKGX6jlvOHX4wVyXGcQMDed7MHfTndnLKLHxJITPb9ulM6kpQfkQsv8KaV6e3SO/9xuY6tv1B7r16jj9bP1fvr5+j9dfP1/roFw9KHa+frnxct0SdrVuitiy5R1+H96s+kJy1ygMpDBwQLsUOULPETrNw/HjgQ+ZFuuummMUeN5557LvT1wQcf6IUXXghPbvmKAn883eV89MOb2iaWrBUihPHz2PnI//Vf/zU8iED8/K8EEJiAyJ1yl0R3mYGfGfZ2Kerld6894QXgRMMRpTP94VcJmUSkKJMQv0jg3TYlexQlO8PTVsqSmbTSff1KJZPZ+nwUI83LwymlU93K9PUo09ujVLIv+zuJKBX8K5PuUeLEYaXTHdlXtjrbpfYGRclmpTL8MiKjjNKj/mxrLJHjXvEFfnhva3MTETpe0WI9jz98+nT+pl3khn6gkFYqk1K6u0Xbrr5cR9evVdXaC7VjzUptW7FCW1es1tblF4SHDNtWrtS2ZRfrs2Wr9f7qZWr5lF8TpAJpRIQmGKdzo6O15UkoITER1UTOY2txI/XHgwceIvjfLEbARK69I7gCDoqLjuem1CNSQuwSAz+5CrYfyge+zENfmYGPXgw4flwAImV/jkUe0VeKX1Sklcj0KUollFEymyJe7uV4JB6Y8nIxy0L2UzEmM+GXEPxiIsV1DT9nnF3OP5rIxevhW6xp894b2+F+cx5G2L3w5gL/HOZE/DF+jtG28yhy2SkrF57qaNWWG6/X8fUX6tC6NdpxwQptW3m+tq5cpa0rV2rrquXatmK5Xl13kVp2fqx0JqUMZA6AYDc/2k1MRznnsDRWf2NdC8emi5ixrsGPFTACMZFj4WMiAjd4NwOVR2szklDm2qPVCeXpAR/KpMJPtwZ+ARu2eWEvfCElhaBlhSyIWfA7jtEmnX2xj5f7BsR18FoHNjhPELkP/67c9+Ssrl0jOVNXHiYQqdk/oUhkx3IOwQbr1ZSbEFofp5NPv8jFrobBBny4Oeb+nbs+1qff/ab2XLleH686X/9cdb4+uGiVXlu/SnufflSprvYgbqzD8aNh2hlAsW590xEoXAQQueZa1T7/Z0XtbVJHmyKmf6OlrnYpDymiz5xzRp1tirraBsu5LkvUzW53DF7vmNc90De/zjj4f79T7d692SkyH7616aUpbowt82keBtp35Jj9MDXlQYOJG/WmK2DIn8iF4Sj8L9xiELtMWol0Qj2dLeprOKne+jr1tbUok+TxNNPb7NcXeOUwOwpO7qFDDEvfdATOCAJEM8lMUr21R9R7eL96jxxU79GD6gvpkPqOTj31jtvWzhPLj7F9SH3kg+mAege34+WxdoPXPNB+lOsP11RXO7C8lJ2GjiVyuaSY6JmoxfcH+8ltNMn9PIjccPm2Paafg+Ew6wERi6MJZVhEHYjcEDee3yBwQRQnsJYxyfv16o5AXhEYclLsOpuGJq026I+eD63gjV5nMv1Nte6EriNEbPh1Jvh2KuLxxEBgYo4/BtpxERvCbWgGFz8+RjfjHsqDyI18Trvg7Lw9yFiQs8GbM3FTWDYdXMuYAFYjn9BLHQFHYEYRKFRfnRGRC2PS4BrbkMDZpBQmQp1R8hllyk/mCDgCJYXAjIgciA1GbOHDeqcKXVbkRg6SSwpxvxlHwBGYUQTOgMiNHLONXJqN8GYUET+ZI+AIlBQCMyZyJYWa34wj4AgUDQIuckVDlV+oI+AITAUBF7mpoOZtHAFHoGgQcJErGqr8Qh0BR2AqCLjITQU1b+MIOAJFg4CLXNFQ5RfqCDgCU0HARW4qqHkbR8ARKBoExhU5/m1QT46B24DbQDHaAEo8rsjxMUlPjoHbgNtAMdqAi5wLuA9gbgMlbQMucm7gJW3gxRh5+DVPb8Q8JZHj08SeHAO3AbeBYrCBCYlcMdyIX6M7nNuA28BINuAi51GpR+VuAyVtAy5ybuAlbeAjjexeNrsiPhc5FzkXObeBkrYBFzk38JI2cI/aZlfUNhLfLnIuci5ybgMlbQMucm7gJW3gI43sXja7ojsXORc5Fzm3gZK2ARc5N/CSNnCP2mZX1DYS3y5yLnIucm4DJW0DLnIDBs7vBUcaBbyssCMB562w+cF/cjnK3c+3j81KkQPkONC9vb2qra1Va2vrsPJ8g+/9T9xBjbOurq5Bjtrb23XgwIHBfcdz4njmC6u4X3EO4y2eV1VVqaOjY8JBRbytbdv12/5Y+awROQMBJ8E5jh49GoBG4ADs5MmTOnz48CApBqLnZ85xjDPyzs5O1dfXB96ME8p37do1KYextp7nj1d4AV98ra2tTUeOHBnGESJ3/PjxCQ9OcTsYaZvzjJSwGVLJi5yBws0iZLt379ahQ4dOGUUYWT777LNAhrVxR8ifI4yGLdhzjNycBL727dsXRM64seM4THV19Sl8jta/l08vp8aXccY+vlZXV6e9e/cOCxysLr7GMfatbCxerJ7lcUHjXPQ3VippkTMwGDV27NihEydODDpQf39/GGUMOHKOEy1Y2VjA+7HpdRbDE+zhrbm5OTgCzmDLCBwjMsCwjSPqEs1Ze8/zw8t4uMIDvBw7diwEEogc+5QjQHAY74OZVEtLy5REjn6tb3JmZmOlkhQ5HICbJgLYv3//4FTUnOfgwYMi4UBx4AFsz549AcB4uW/PjOPAD2ujNiA1NTWJSA0+GYCIwuET54ATymkDzzgS+87VzHBlOIM5AkakzfoogxN8mK/BF4kya0OOf1Lflovix3K36csSPmpRmwkbA99YqWREDrDNyBsbG8M6ACBYGSAjYKwP2HoAQgdggGrtGYkgytrlAu770+tEhjs5jhLHHufZuXNnGIzgDkNH4OAS57DRHAOnzDmbXm5GsvVcjFkqYACCCzvG2jZ8IWI1NTWBN7atjgkbnMGptbPzsW+J47QjmbiR49vwjj2Ml0pC5ACAER9gETjAAiQAIiymnPU49klEChynHUJngNLORI9t6hrwnk+/AxGpMcrjFGb4cGLlNghxjGUE45A2xqXxjMFTxr5zNf1cgSnYIi7mU2zDDeX4DTyydAB/1IcTuOrr6wtlFlzQxtrR1pLxZvvkcIpNkEzkGPzomxyB43wkfN9SQ0PD4HZRihw3byAy+pO4KTNyjgMIAJvKE8HhKExRcR5AAWhIiYPKNiIIgHYey40Ez1D+EwAAACAASURBVKfuRGDJ6M/AQ47xUkZim7UcnIh9Rn+MmZwEn2APd0QP1g7ezfHYdn6mzk8udoYx/mC+hk9Rbljja/BJHfwQXll2gC+iNavPfpxv2o/0dNzOaeegDYnzEOnjyw888ICuv/56XX311bryyivHTEUncgCDI7A+A0DcNAAAJOACjAHJyA/YtAFgRM4AgxS2UX7aUccSYHKMffrLJd73p+ZEGCeDDCM+2IKjTWfMoIkO7DjcsE0Zx4kE2IYb+DO+LKfc+ZoaNyPZNFjiM2CNvyFi1MPn8CvjjJyZFP4GB3CMP8ILg5RNS/Gz3GBkJM7oz/rmOMkE7vvf/77WrFmjFStWTDgVjcgBGOtljCYGMGIHgIzyOADHAIS6gAQwiBv7gItD2QhDuUVriCV1LBnIIxHvZZNzIpwEfoi0wBt+cBrEy3iDVzNqcriEL7apg1MRfcM17SgnkkME4+2cm8lxMxJe4AlHYI2P2BIBuMMhPoZYkeNf9EEbuGUQw4fwS3hH+OCPvqjLAGX+SJvRzk8fJmy0sXTTTTdp2bJlg+K2cuVKTSQVrMhxo4wCGLgZMkBSzk3jCIwYiBb7Bi7lbFsb9q0PnIupDscBEeIAnX4oN8JoOxoJIxHjZVnnMtwxcrbBBVzhByOnHLxxBjjheHwgMs6IAhA1jjMw4SzwxXHKzdlwtPjajvMwNZGDK3wLnsAQrC0So8wEDy7NL+AFIbN9eKAePkuCJ/rgeHyQgn/6tHa5nFFu/oltcF3099hjjw0KHMJGJDcRgaNOwYochg04jBomQAACCABlYa9FaBwzhzGHACyARsxY/KRP+iIKoA8TSKufC7jvT85pwBEBgjeEzPCDMzDnGBxRzggPPySOETFQz4yc9tTluPFNG7iEQ8rNWdimnZ3P8/F5i+OFOIEl/mH8GIYWGFAfXyR6Nuxpx7bVhRcLMuwtBTiHPwY4+sZG4m2sreXGP/Wob6K5fv16LV++fFLiZiJYkCLHjSJOGDrAE2mZQQMGAJrwUc6IbsBBhIXYBhijCvVxEOqak1gbRiED2fPxHQSMwJYcDNkmYZgIESM8mGPYVg+DxSloA944gwkbozX1rS9ynIk6RAysB5GbDVifdh12fvY9jY2B2XwcJ/wBn8LfbBpqmCJQCA314QkfsrY2oNk+fVOfQY7c/M54tT6pH+fQ9u049bEl+DaRYx2uqETOboacmwA8A4qcfZyFd6RwmFxiaBN3ijjYABNvQ1ucCaGknfWVC3L8/L49tqOAHY6BWGGM7JMTkeEkFhnk4ki5RQIMYvBmbeNTXCtD3IjUTdzoLz4gUc9S7rl8f4hDMAIPBhqzf8MHQYIzi9jg0Y7RzoTN2uF39GPHsAPacJwyBiN8d7K+Rlv6INGfRXGcH1uJP2iwCG2i+RmJ5OxmABMDxtgBj5sBIEYUthErRnMDgJw25DgMddjGuagLwERyRH/kFrEZYHHybNvzIWcYCwtwxnCtjhkzOMMXI7cNLmxjqLQhWRsEi4iBfY7DOU5GX8YZfVg7jrGNsMXFzfrzfHzuTJDACv7wNRvwETdwR0gIBFi+oV6cM7bxSesHv4MX8zOLtimjLbyawBmPE+GJuqYLJnJcFwm7KViRs5sktxtlG/FBmKycHBDt5si5YcDCEbhR6sQTEQGE0S85dXAQygEF0jgPbejL2tp1eD6yg8RxYttwYpvR3o6TwxOJgSqOMTwYv/Fy2lgkAEc4GBzDEwnObIpLXTu35yNzFcclzku8HC5yMTXBMj+jLTwgesYXfRgH8MJAxL4JHn5mCS7NR2nHgDTa9cSvLb5Nfc5N4rq4Rvokcf6CFjkDC6Xn4jF+cqYiBig5N4KzUB9iiAYYLQCQ0SJOiAECEDgH6wRxUK1fO7cdi4Pq2yM7ThwrtuHF+GGkt4GDY/BFGds4CaJlETn8UUZbuLN+zcGoZ8eNC+qSjDcr93xkruK4gK/twxE44j9gb4MTZdTDvyw6RgARN3wMLmlDHatr2/TDMSJxjtlxcjsvdUm2P5nczkN/nMtEjtlawYmc3aRdNMBh0Igb0xoIYATAIch56olDALJNZbgpwmJzKJu+cuP0Y+DRnr7jTsR544m68X3btj48zzqQ4YKRIT5gzuBhU0+mOOBPTh1Gdpv6UM4gBl84DH3BofFJPfqknLZwy3HjxjkYX8RGwgg8DUMTIbDFt/ATBAyRiOMPfxxDsGiL4CGC8IPwsQ2f7MORiQ59YRPsm63Y+Ue6tsmWmW2YwDGAcu3YFddRUJEcF2tRG0BZeMtF4wDcPDk3gwOxD7i2TxuAJMfJbBsxA3wI4xx2nHbjgc3x3DRZEkq9PtjaGiecsU1iIEHQcAr24QEuwRNucBIGMvChzNqyDX9E4jgHfFGG8NEn26RSxzWf9wd++Bo8gCm+gT/Aj/kdOftwQEBh/sK3E40DeKUt/bBtfodYWt8mcOzHeYtvn8690g99c33YItfMtRScyBlojOiAggNYBICwQQRlAMpcGzC5IQOO0YJkRHAcoHEMbhbCiPjMoex84wEdr2fbp0NIqbUFE3hAzEyY4AkO4cI4tIGGOrSBNxLHbR0G7uGLiAJDJWogOmA7jj3bpYbjTN6PYYlPGWf4B4MJ+DPwwAXH4NYCCuPMZlLGCxzBFYl28GeDF/dlfOeLN+u/4EXOSDYCABQSEC7A5gYQO8oROggBbLtBco5TFxHEqTiOA9G3EWT9k9s5x8rj9W17rPqz8ZjhQg5POAUOAP6IH3xg+HCAQ5BbG5wKx7BBypwNHKkXH8hmI7b5vGfjgJxo20QP7vAfeCEwIEfAqAcnxjE8EzHhd7TH10hwxnVT33I7Vz7uJ35dnJvrL8hIzm6eCwZQAGebkd4chnK2zWEAGcANQBwGkaMOxBjA5lR2Ds+nto4zGm7gz6CDoIG9CRuOAvYIF0ZnEQDHacMx6tsPuFk/iTuI8Uo+2rm9fOpcgis+xUwH/vArtonEETe4wf/gidw4w+fg1IIP6sGDBRRszyRn8esqCpEDIEZ+HAGhA2yAt8+qGBGM/JBBMhGjHc5kNx3P3Rmm7gwTwQ4O7Gk2Rs8AxEADhzgEjkEUByfxjxpQDse0n8h5vM708QgX+AxRGD4GDyZ2lBM0wCkJMcS3zNcog2f6IJ1JXjg/14UtxUUO+yu4Bw8GlAHHRQOkhcPsAz7HKWcfZzLgaW+AWx+2b317Pn1OEscyjjcc2RocAgdXGB8ORBsiOpyKNsad8WR5vG/fzg9n4Gq8wZEFFYgdfCFq5oPs42vGGW3hzvg7kxzZNXGtZmdce0GLnAGGU7CAadEcowfrcfZ4mnJ7cpPrHLn71qfn+XMYsAV3IjaMDbFjG1EjWsAh4I5pDtyag8S5Yju+73zlly/DFz/Dv5ghsQ1P+BbCh3jAGb5nnBnX8X3ra6Zz7IXrKEqRw0kIkwHN1ntwHlub46YKAeSZJrXQz2frOPBj2ziLraXCWaHfw2y6PtbSTOAQDMQMPyO6Y4AyASnUwafoRY5ojZsgIsBp2DawXeBmZpSfjMPjMCZsDExEBWaEHIMzF7nC4g1eGITgC3FjqSHuZ/HtydjCTNU1+yq6SI4LJ5Jj8ROwWMOZKdD8PKfnhDYgwZkL2ulhORO2aJEcSwpEb7Z2yrk5NhPXcDrnKFqRy71pwC4GwHOv2/eHHgY5FoUveHGOisXnSkbk4uD7dnE5i/PlfOXTBlzk/IuvBT/dyKcDeN+lL7Auci5yLnJuAyVtAy5ybuAlbeAeqZV+pDYexy5yLnIucm4DRWkDiBfJRc4NeFwjGM9I/LhHQ4VoAy5yLm4ubm4DJW0DLnJu4CVt4IUYWfg1zWzE6yLnIuci5zZQ8jbga3Ju5CVv5B49zWz0VIx4I4T8fLDofrtajGD7NbtDug3MvA24yHm059Ge20BR28B4v1l3kXMDL2oD98ho5iOjYsPcRc5FzkXObaBobGC8qG0kAXaRcwMvGgMfyYC9zCO58WzARc5FzkXObaCkbcBFzg28pA18vFHejxdfJIhoTYY3FzkXuUkZzGSMy+sWn4CUImcuci5yLnJuA0VjA5ON4hBtFzk38KIx8FKMMvye8h/tusi5yLnIuQ2UtA24yLmBl7SBe6SU/0ip0DF2kXORc5FzGyhpG3CRcwMvaQMv9CjDry//kaaLnIuci5zbQEnbwFRFbsWKFVq5cqVuvfXWkLOdmyTpX/jfWH8+kuV/JHOMHePZbANTETkTuLffflvt7e3asGHDKQKH4PHnIudRQklHCbNZPIrl3icrcggc6Z133gkf2/z2t78d9nOjOBc5FzcXN7eBgrCByYoc4oXA0e6b3/zmiBGcCZ5Hcm7kBWHkxRJx+HXmZ1lhsiJ3xx13KJPJ6K677tLy5ctd5Nww82OYjmtp4jqV78Gdri1MVuSYqv79738PU9Wvf/3rLnKnS4C3L01ndl4Lh9fJihxTUYSOhw78Azi+JudTUp+Sug0UtA1MReRszY2IrqOjQ+vWrRsxovM1OTf+gjZ+j7bOTLSF6Mwk9lMROSI5E7pbbrlFq1ev1qpVqwbL7JiLnIvcjBrzTDqOn+vMCORUcJ+KyJmIjZe7yLnIuci5DQyzgZmO4hBFFzk3wmFGOJWR0tsUT1QzG7lykXORc5FzGyhKG0C8JhIZusi5gRelgc/GiMTveXjE7CLn4uXi5TZQ0jbgIucGXtIG7lHN8KhmNuLhIuci5yLnNlDSNuAi5wZe0gY+GyMXv+epRa+IIT/P6uzsDL9eaGtrU0tLi5qamnTy5MnwEy5e/o2/ADze+3F23N+Tc6F1oXUbOOM24CLnRnjGjdAjlKlFKI5bFrfxvmziIuci5yLnNlDSNuAi5wZe0gbu0c70RYljRUxjHZtODqZyHhc5FzkXObeB07IBhGcq4jNT4uci5wZ+WgY+nYbqfU1f1OVYDmHpIuci5yLnNlDSNuAi5wZe0gbuEc1QRDNdWCAa09XXVPqZ7Pld5FzkzqjBTsXIvc30C1cpY+oi5yLnIuc2MCEbmGwEVSjC6SI3AwbOT0oKhXC/jtGjIHNiy5234VgV+lNUbHskzlzkplnkANScxATl6NGjqqurO6Xcjns+3JlmEg/ji5x/lclehWhtbdWuXbsCZ7l8zuT1+bnGtw3jEKwOHTqkxsbGYUEFx/23q9MkdAAJyAcOHFB7e3sA2pxnz5497jDThPN0Oj6cVVdXa+/evaqpqRnkCN4oMx6n85ze1/jCNRJGJmbk/MgeXzty5MggR5Q3Nzfr4MGDgzzSD+UuchNwPgPYQLMc8Orr67V//34RsQF+nCDa9fX1heNEB/Fjvj01Y58MbuBv9W2bnK9Q4CDw1tDQEKI4uMytc/jw4cH21o/n+ecNjI0L22afgYgg4vjx48HXKLPo2+rv27cvfHHEeKLcRW4CIgdgcSdgakMEAKC7d+8eFDfqVFVVhWMGMjmOhFMZEfFjvp0/pwHveGIqw0hvgxKf34EzPrmD87Af5wNuc8vix317+rmL8wW+RNMnTpwInBFd43vUIUfsWAqK81BbWxt80Mqo6yI3hsgBUBwsIgDCZBwFh8EBAJptRn0chZCZ9RzaGWGAjCBCjPXn+fQ7iGEa580GHrhhYCKitmkN3LGUQISAsxCVW1tyynAa69fz/HEGtmBOZEbO997wM/zKfI1tOIFLtvFHBixrC9f4GL7GdrwcX+WYf09uQPAA2RJgASyA4iDkHAM0HADAcRKOWajMPiQZyNSHKEBmm3JP049BHFuMGd7AGezhkYTA4SA4EBE2gxa8EDHAX7wP6iOMxhXH4set3PPT5xJc8Sl8B+7giZxyuLGZE5wSebM8xDGiPHwSDtiHM46Ts29lLnIx0TFgAIWR3kSMfTvGlBQn4TijP4DiMDt37gyE4DRECLZeAAHUgRhyd4rTd4pcDI0bm3rCjQ1I1EXo4BLuyOETLmwBm/a0MceiDWW0w8HYpr6dJ/f8vj85Tg1HcgIEsMenEDHzNXKWeeCIgQkfgwOCC4vW4Ivjxhf90Q5fszLaUOaR3IAQ2UhvoAKahdAGIMCbMyBmgIwj0BYnMuchjwvdsWPHggi6Q0zOIcbDi5HeDJ+RnX0zbDijPZE1vMEHXOFQ7COKcEh92sG7nY+2LnLTy5VhC95wAt4IEtvgTblxhjBxHF7wLYQNX0MISXBOXbikDn1bH/RJe9ufVSJnABrY7AMAoDHCM6Jg/EQBRgLzfupZXcoBkX1yHIE+GGlYjzOH4RjnwbEs2Xk9Pz3nAXsiAAYOHIGI2hwCocMh4IN6YE2OMxg3OAtlOAf84jDUo445Ry5H1Lf+co/5/sT4BFuwBnMbbODRIm18DywNa3iFT/yHYwQX9MG01vzSgos4N7ZNDue0mTWRnN28GSVGjrhZmAwQgMmTHASP4ziSOYyBhhNRlwTYNsIQGUAYQrhjx44ALudykZuYExgv8TyXM47BDQkHYR/MeRoKD2DPIMW2CRZ94DA4B/U5hqDBrUUJcMnARDRO/ZHOG78u3x6dU4QlFx+4sgEJXkj4Hv4D5ggY++S0B384gSu24ZW61ofNnuAPfzWu4+el3awTOcQMY8eYARNADAhGDEAEPJzGjgMuQBtx1KePeLhMGYn+cTb6px0iicBxHsvjJPj26I4CNmBOAkswZRABZ8MNnhArjln0Dc60gTMTQcrMqTiGYyBwOBHtmLLSD5xiB/QfP4+dz/Ox+TJ8wBgs8QcEDOztGNtgDN4ch1t4og382pIP+FNGXYIM2tHGeGHAgjd4pB2+xjnifmZ90Bau8WmzE9rYv9RVMv9aFzcM8AgUNwt43DjlAAOABjbOQ0THMRIjDHWNKMoYPcghieMkBNKEjT6tfS741o/nYzsNRg5GYIuhYtgYKbhSDpfxyIt6ZuwYMdEePBgX5jD0a1EBPCN6xpWd07kZm5ux8AFLCyTgCzEzXOER7MnhBZ7wG45TZrMk4wNfNV+EfwYv2rMN11aP3Li2a6PM+i1ZkeMmuWHLARwQ44IEsBzHYXACtilD9EzYGEnMmYws9nEiQIcoKzeA7bx27ni5b4/tQIaZ5fBFghM4NGzBPM4T/GH8tOOYOZNxg1MwODHlwbFskKO+JePGzm37np/KmWFmufHCvk0j4YDgwjjgGNjjb1afOtYH/HHM9mlHtIafIZwEIOazVsfyXI4opz31S0rkuDEAxpCJsrhJckYDHAKwDCiOxYEAbCtDxGgHQDgHfRpglnMOI8ra5QLt+6c6x2iYwA0GbkaJM8AJXJBjqBaVmWFzzJwCnuAZLkjs04b+jB8GJsqtveWjXZOXj84f2FkAgH+AMwM+PMIDAxODEuVxnOGCYIMy+MQvidiMN7Y5Zvv4KzxbP8bleNxYH7QrCZEDbIyXG+fmABegmYJaTjk3izgZYJSRaAeQkMQxHIw+LYrAyUiMKlbf+qAtwI8Huh/POoxhTs7obLjAHxww8sNRPALAcWzQirenDRyBP1zTDtHDiYwznAiuOI9xZ+f0fHQRy8XGsLOZi/EAL+AOFwwiJlLsU26iFPcROMFH6QNu2SY3zuDUBi/a4bd2/tzrGm2f+rSF+6ITOQPXbprcAI2X2baBABk4kYmZgc9x64MpD6CY41AeT3GirNz693x0hzGsLAdHEmKUK0DUMU4wTpzKBhxrF+8HzignZ/3HjpFTTv/WJ/0SPThXo3MVxyaOpeGJIMUHe+PKMCbH16iDH9lad/w4ZYgYfovg2TntHMZbnG+rM9Hc+io6kePCMVLCY6IAy3EGHIZRBBAAkJEB56ANdXnySX2ABXzKaQfgBhx9E/nF13bsGPVJtu/5xBwFnAxrRAjswZ1R36Yi1IEHImibynCMbYsGjG/q4kQYL05g9mCcUubcTJyb0bAyW7dIDd+yiC0+OOFrPOnEr8AeHlj7pD48m4hxHI7p18SLuvDMvp3Prsf2LbfyieS0Idl5uA6uB4HmfjjnypUrp5wk6V/431h/E7nQkepg2ADMqM1FE95Sxj4XzhSHduQcB2ADkDIIYZ9tHIqbZ8ShjH4g0QRupPN72eSdB2MDY7C1ER7cjTv7qAH8cZzBCe7MUOHb+IFP48kcBk5xFspp4xxNnqORMEMQ4Ah/sOkkQYL5EQEE7din3AYZOGC2BJdsMzjBrZXDJdzBpfnjWLyNdWyk66aMNiTORcLeTGS5Vq5n1apVhSNyXCxOAthcKEaPE9giJ9uMHNwM0Rq53SSOBaB24+Yk3CQRG31AggECMaMB5+WTcx4zZLC2tRowhy+EDGMjssNJ4MGmkXYcTsDcnASnwiloa7xSh34QOHh3jibHUS5e4AlHBADgagMT2IM7/ofwgTXRG/XhjZzBynhgH9FDXOiHtvRBvxyzcrZzr2E69umXxHWSuC6uHdtCsAtO5OymuThECKPnwhE2wGKfchwAIeQGDHgcDYHEkbhpSEMkbQTB+Wwdx85j4Ni+51N3HHgCexMuxAyjzx2U4MQ4A3/24Rb+yHEouKO/uA3AjfFF7lxNnas4dviQRW/gb9NKW/eEQxuwaAd3iBjHbSZEGxIcwo35qfFl7eLnna5tzmEJgSNxHwUtcgYMOYpswgXYOAQ3gSNwI+wDFnUBn5GHMkggkjPQDVDq2ba1yy2LH/ftiTsSOCJM5GBvDoMD4QyM7Gybw1CPhJPhFIgi7RiIrB/jyHmYOA+TxcqwhgeEi2RRHL6GP7EPN9Slf8r5Gg8DGO2I3ijDByd7/tOtb3ZkOdfItXDN+D8D5Zo1awpnusoNc7E4AsDhKAgaFw3ICB1OABE2+pAbUDgTawRGHKCfCeDtemZTjkHhEPCD4RPVWSQOh3BiETn8mlGSM/2Ba3MiymYTdmfqXsEZPyNyNmEjAiKwYNBBIOCKY0RqxhnXS7nNjIy3M3Efdk2Wcy0mctwLdrlhw4bCEznAQpy4WBM2RI59ojVAtxEHR6I+N8lxkt2wC1z+IoBcgwZzyhA4OLAIAIfBGRAxuKIex6hjfWCI5ijGnR3zPH8cGmdgT4InZkEIGvwgZOQED3CEz1GPdpRb+0LgyK6LnGtDI0zkHn300SByBfXbVQMPYInUiASIDLhwEuJFHRwH0WObZDdq+4UA/my6BuOA9U+bnprYwRVYYIAcQwzZp008n014FcK9Gv6IG5EbfNnDI4uuqQNvROLkxpe1LZT74HpM5Lh2tAINwda+9rWvjRjN2Y/3R3vNhDdH8vYKCReLEjP9BFgu1BZBGWk4hsCRm7gVAtiz+RrMGXAUMzg4YuqDgxApENkhchZlF5KjzFbu8B8e0METfBC54WtMZUnma4hGofNldodmmNBx/Yjd97///fA6STyiO6Mih8EBKqMK/+Qf6wZctI0uHLNtF7n8TWkm4/hmYAiacYLI0QdGR1Ru4mbR+GT697r54RneEDkGIXhiaYiy3FQM+JsNxkUOnUDosD+WTO6++25ddtllWrt2rS655BJdeumlIWc7N+U1kuNiuThEjgvGWXAckjmIkVAM4M+Wa4QT48oePMCfcUUOh7MFj2K4Tzix17KIeGz2VAzXnnuNZl8mcuQkm7pyfyQEj0TESmKmOFLKq8hx8agvUxsiOZI5h0UDuTfo+/kZ6SeDKxyZuJnBkeemyfTpdfPPK45PJBfnrBhxNzvDDk3gTPAQOksmdiZ4Jna5ed5FzkC2C7d9z/Nv9NOBsQ1K09GX95F/zkuJL9MME23uzYSPGSLJBI+cgCqeTARnTOTcwPNv4I6xY1yKNhAXO7bj0Z1FeCZ6I+UucrF/y7UUDWS67gnjmq6+vB8X48nYQK7IWTRnYjeSsMXLXORc5Fy83AYK2gZGEjmbuuYKnglfPHeRcwMvaAOfzIjvdUszQswVucnuu8i5yLnIuQ0UtA0gaqczgLnIuYGflgGdjvF529KMvKabVxc5FykXKbeBkrYBFzk38JI28OmOCry/4oseXeRc5Fzk3AbcBsawAV+TGwMcH/WLb9R3zpyzXBtwkXOR8yjAbaDgbeB0fuvuIucGXvAGnjsy+75Ha5OxARc5FzkXObeBgrKBsaK2sY6NJnwucm7gBWXgoxmql3v0NlUbcJFzkXORcxsoaRtwkXMDL2kDn+ro7+3OfOR4uu/HGYcuci5yLnJuAyVtAy5ybuAlbeA2mnt+5iOziXIwXRGcnc9FzkXORc5toOBsYCpPUU3UcnMXOTfwgjPwXCP1/eKJwgqRKxc5FzkXObeBkrYBFzk38JI28EKMLPyaZjYydZFzkXORcxsoaRtwkXMDL2kD96hpZqOmQsTbRc5FzkXObaCkbcBFzg28pA28ECMLv6aZjS5d5FzkXOTcBkraBlzk3MBL2sA9aprZqKkQ8XaRc5FzkXMbmFYbmM5fK0yHaLrIuYFPq4FPh1F6Hx59TacNuMi5yLnIuQ2UtA24yLmBl7SBT2dE4H1NPMKc7i+JnA72LnIuci5ybgMlbQMucm7gJW3gpxMBeNuJR25xrAopiuO6XORc5Fzk3AZK2gZc5NzAS9rA4xGGb08tMpssbv4KiYuKi4rbgNvADNqAR3IzCPZkR0SvPzORh+Nc2ji7yLnIeVThNlDSNuAi5wZe0gbuUVppR2kT4ddFzkXORc5toKRtwEXODbykDXwiI73XKe1oz0XORc5Fzm2gpG3ARc4NvKQN3KO00o7SJsKvi5yLnIuc28AwGyi0l3knImRj1XGRcwMfZuBjGYsfm91RUbGKn4uci5yLnNtASduAi5wbeEkbuEefszv6hH8XORc5Fzm3gVNsoNA+l3Q6g5WLnBv4KQZ+OgblbT1yKjQbcJFzkXORcxsoaRtwkYsZeCmF6IU2mvr1FE+ENxNPUWfS12atyMVBhtSGhgZ1dHSU9IhW7EIDZ3He2tvbdeLECecsNlAXAsdxjux6rIy8pqZmRjmblSIH0FVVVers7BQCR6qrq9ORI0eCExkhRpDnhRGFntTYYwAAIABJREFUNDY2DhO1rq4u7d69e5jwOVeFwZXxQOBw7NgxMSDhV3B2/PjxGRW6WSFygEtqaWkJgB86dEgnT54MgJvIcXzXrl2hjG0jyfMz6zQ4BSP/gQMHwsCE01BmvBw9ejRE4bbv+Znhy3yMHH4YkA4fPqyDBw8GfggoKCe1tbVp3759MzY4lZzIGdhm7IBLlAbYOARCxzHqMbpYPXJGHMjhWLzct2fWccC/qakp8LF//37V19cH56Ac/kzk2Gd7z549ztkZmLKCPwn/IMefbEAiWkPMOAZHNjixTV0CjdbW1sH2+fSxkhE5A5zcQK2urg5gkhMJIHgACwGIHmXWzsjAqYyIfALvfQ8XTniAHwYZuCHBG1xRTuRNGfzY1MfawCMOZVySO77D8Z1uPAxrfAU+WP6BBziDJ8rhhDVTylkKgkfzLQYrIr2Z4KokRM6AMuCbm5sDsDxMoAxgGTlIEEBEB+CEzOTWDkPguDnMdBuG9zey4xn+YI9TmDMQze3duzdwSbRGOWXwB5bGLQ5jZY7xyBhPNy7GGbMk/IrBCT+DI3g0f0P0zP/IWR6yegxY1J/ua8vtr6hFDqC5IUJhm5IicIBIory2tjaM/hYR0MYchrqUG2G0YVSaqTA6l4zZtA/mCBb4s0wA9sYnvDDyI3A2UOEsts3gBFbWxngjn00YztS9Gi/kiBI+RXQW9xN8jQGKB0Fwyj7BAoLHdcId7RA59umL4/E+8nU/RSdygGOgAzjGz4jAWgD7dhyDx0kQP4DEaRhtbIRh9Afw+MMG2tIOojieL9Bna7+Gr0094QRuwMOMn/U3HIPBhtymPPAGz/RBHXilHfvkOBj12bey2YrzdN833OAPiBfiBv74mg0qCBqBA0IGt3CBr8Ev9WlLndyHDfSxc+fOwX6m+7qtv6IROQwXUMkBkPk8wAIqZTgLIBvw5AgfzsA2dU0IAdcchuMWIdg5LBo0kDyf+hQITElgDv7gbmsxlNk0B4xxJsQNx2AfbqkPH/RBO47TzqI5yqlLOcn2nbOpcwZ2hiPRNnwgRvDAMUSLcrbN31gugEu4IbggauMYdYnUKWfdztpZ/9an7eeDt4IUOW7Ybjqe29QTQBnhieIAjhGDkR7Dx9ANeLZNzBh9aI+gUUZidKF/BJA2luLnzwfopdpnHDfjjcEHvoiywB5jB3u4w3lIiB/1LZrDKXAGyqhrfbBNX/BEHWygVLGcqfvK5cz28RW4wb/wI3yMgAAOKCeHS7tOxIpBiH1bWmCQoi5+mTt9tfNY+3zmBSdydvMAGJ+zsw/wgAXoAA54Zuy0A1RbYzOHAXj6oT1iZpEdZTgM7Sln385Nnk/QS7VvcEOAECgbMOAMkbJyBiMM36JuynEYcjgjMfrjVJThMLSBH/aJEhiwaEN5qWI5E/dl9o5vwBG+xTb+ZVNSthE6cIcLjtOOberYdVJmvgZXxhP1qYef4W8WiFi7mcgLTuS4aQADEMJfDNnCYMoBzQDH6HEWEy4Iwfiph7OQ4zBEEfRLn9ShPxyNvi2as5w2pJkAv9TOAbYYM8IGtvBjeOIoYE4d7ttEjOO0gRMTOcpsPY761LW+zXmco9ObjprtgSM+g8gZP/BGwicIAGxJiIjbBjD8ClGjvfka9RA/9jlGdAevcAaH+K5xbOefibxgRC5utGwDOlEZIEECRk45iYVNxA2AGDUgh3JAxJnMYaw+IFMPknjQYNMj6psjzgTYpXgOMLb7AkuwtnUYBh+OUQf+EL6+vr6wj9HjBLShPsesH3L4RfxwKvjHaahnnNEuXt+3JyZ6cb7AjH1wtcgMrMHWxAhe8B3qUs8GJ+qwjZ+ayCGKNjjhh/GZE+exNNNcnXGRAyySAUDOPqCz2Imhx+sAEKADsIFrERoOgOPYaMJx2iJ6AI7D0J4y6nKumQa8WM9n/Nj1xwcdyjgO9kxHLDKwcmuDw+AI4M+oD2/GLQMa9cy54GfHjh1h0LJ+nLOJCZnhbbhZnmvv7IM/gsTgT/CQ2xZOKTee4Bb/oy1+FZ+ywg++Rx0E0fwv97zxc8zE9oyKnN0sgLFNYsRGgGzEYCQgMkOQLPylfq6BI3I2xWR6RD8ATg74kGPHAZJy+mCb/mYC3FI6h3Fg9wRPCBrYExnDIc4Cxhi5iaBhbVybmNmoTz24gW8SkQHnoD4csm3CZ+f2fGJiB4Zx/PEnXo+ywQYOLfK2SA5srY3hTB3zPwYmODI/I4cnjtMOXuGRbUvWz5nKZ1Tk7CYBmwQJVoaxAwqjhI0AHEPwTJyob20QNBt5iPYYOZgeUU7OsXhEZ+3sfJ5PzFHAybAjss7FDaM2QeMYHIK/LQlYe/rgGHySMxDZdBTOSIikrfNQhzZ2bmwi99y+PzqHhhuDEL4Rx8p8zYTJuGGgAvc4ZxyjD/yVYxaMUAbP+BjCx3ETwtz28XOfie28ixwgkXAGQAIM1mUYHSg3QDhuoLMNmEQKGD9AUtcM34BiH8JMCNnPrWN1PR/dIUbCJs4b24zWRM/gTX3jw6ItcIdbpj0IGBEDZVY33h88wy/17LjVHelaxitzAcxyaxiDL5gRZRE0EFkbztQhEjNBYhv/wdcYZODQuLX+bJ9j8SUG6yNebzyuzsTxvIgcN83NYHw4gYXFRFeM8JQxbSGnLg6BAwEy7QASJ7Cw10YPCKMPRJJ6iCGjj0USBvaZALIUzmm8gSs4g62N7jgB5eYwcIWg2XEGI7iFR7DAwRjt2bbozDCijg1cxpmd2+p4PrFBKY4bgwaCBUdEWXCEz+A/+AiiBI/wQV38Ez+EQ+ox0HCcekR/cEodzsE+x+iHeqT4uQuZr2kXOW7cRnvAImIzoHAKKwOUeATW398fQKQ99QEVZ2Cb/qjLMQiiLQJphFgUUCygF6JBwAsJDOEMzBE1Rm8SXJjIMchQF9wRMhyGduzDCfW4RwY3G9BsrY2y+FS2mJyl0HgDc/M1OLABxqIzhIsy9snBGm5IPNSBR/wOjhBEfM1EkXtlOYFzIHYIIe3Yj6dCw2Sk68mLyDGKAAq5TUsZTTBuojMMHcDIAZULAziO04ZtCOE4+wibjSREeVbfHIT6dnMQZdueTywaACecBbxJiBqRmDkGkTY8MdCQ4xBm6HCAsNEHToPDEAUSTcAxuTkI3Fg76tt2nD/nbOKcgRsRMfjCmfkTZXAEF/gdHLGeSn04YIBCwOCHfRJ+yoBFOT4HbxZtczyXL+PM8kLmbdpFjpsFVIsMbKTHEQDEDB4wcSwcgvq0ow2OhHOZ0xFO23Hrl5y+4qmQQS6GawNLcMXw4cGiOZyFRDncUY+InLrGA4OQRQM2GLFPXe6dttSN4+DcTVzM4rjlboMrfJHjUyZsRG+IHvv4GH6IeNGeuuZf+CX7iBr1EDS4sT45ZueMcxbftuOFmudF5ACAUQAgAcmmMLZmg9Gb6JkzARDtcBgApx0heBw4AzZe5tvT4yzgSJRGBAf2GDz82ZKCCRnOwvTFIm44wSEQQOoTUZhjcMz5mT5+RsISjPErfMqECw5t+go35mtwRB+0gSMidOMXUSxVvvImcoCGY+AURGYWCQAuITRE4CjmNJQDMk5iazwjkRovK1VS4vc4k9twgMMQARCRwRNcEA3gKDgMgxLTUnMc2pBoQ27Xa1Mc2/c8P2KHD1j0hu+Yr8EdPshMiEGJY2zDK23ginIGNvMjy+Eqvl3s3OVF5AwkgLKFTQSP6ACxgxScAKehDg5jDlJK4BajcYA/CT6IqOELAbOoHKfgvnAYcxDqWjtyuJ1pkZvp8xUSt8YX10TwADesXVOOqIENPFpURz04I1FW6tjlTeQA0kAmGkDkIIAHD2zjIDgOwkfIbKDTppAMaLZdizkMAw+DEU7CtMYiAniCR47bKz60cd7yE6lN1P7An5kRnOBTROT4na2nwhtrdkR65puU0c5FTpqy6AAiYgbQRHSEzJBAGG3gc9zAdkc5s45ixg8PTEsxfrbt1R/4I7qDMyID422ijuj18scvXMAPyz9wxpo4PNmUFb7Y51gub5SVMjd5j+QAF0HDYXCWuHMArqVSBrmY7s34IFLjunEaEtvmDFbH9ovp/kr1WuGCCBuuEDF7eMc2yZaGZiN3eRU5DIopqa0PQIKBHHeaUjW8Yr0vOCKS4/qZrtp9MFCV+tTG7rUYc/yLCA5RswcM5m+Wc19sW27bxXi/E73mvIocADKCEL2RzyZgJ0pAIdaDN6Y5OAvbs8ERCpGHyVwTHOFn5mvsx/kbiceRyiZzzmKpm1eRKxYQ/Drzt1bk2M4stgiXYz4ccxe5nuGAuIE4HsVsAy5yp9qvi5yLnI/8bgMlbQMucm7gJW3gxRyV+bWfGpVNBRMXORc5Fzm3gZK2ARc5N/CSNvCpjPzeZnoiqELB0UXORc5Fzm2gpG3ARc4NvKQNvFCiCb+OMxcdusi5yLnIuQ2UtA24yLmBl7SBewR15iKoQsHeRc5FzkXObaCkbcBFzg28pA28UKIJv44zF1G6yLnIFYzIjfWFk7GOuYCcOQEpBuxd5FzkCkbkisFh/BqLT1Bd5FzkXOTcBkraBlzk3MALzsD9SxrFFy0VcoTrIuciV3AiV8gO49dWfALsIuciVzAi5xFc8QlIMYi+i5yLXMGIHA5TiE9RXXyLW3wnJHL8i+meHIN82wD/bCUp3+eZSv+Fel1TuZfZ1mZCIkcl/3MEHAFHoFgR+JdivXC/bkfAEXAEJoKAi9xEUPI6joAjULQIuMgVLXV+4Y6AIzARBFzkJoKS13EEHIGiRcBFrmip8wt3BByBiSDgIjcRlLyOI+AIFC0CLnJFS51f+GxFIIqkKMqE24+iSJaUiRTF0rB9GnEstz77A22G1c8M1B+tv2k5npbSSSncSvZ+8sGpi1w+UPU+HYFpQCDK7SOIW1aoMplIySij/ihSTxSpO5K6o0hdxZAykTrDdafVn8koncook8rerYmwTrn5XDAmvu8iN3GsvKYjMMMIoGqcMqibCMZSUaR/Vnfp5mdP6JJft2rV5l4t2pTQuZX9IS2o6FNhp34tqOjRwgfbdd5DzbruqRr9YVejeoLYmbKlpxVnF7lphdM7cwSmE4Gs02dSGfVmIv3un41a86sGnVOR0NyKSHMrI82pzOZsF0uaU5G97sFrr0hr+UOduvXPJ9QWZZSJUoPT8elA00VuOlD0PhyBPCDAulsmSmtHY6+ufqxec8u79JWNac2plOZWZjS3UgPb7Bdvyt5PpLkVaa3Z3KJXD3QpNY1C5yKXB+P0Lh2BqSBgk7Vs24zSUVp/2dGmlRtb9ZWKjL5akY6JXPGK2piCXBGFSPVnr9WpKx17UBJAGY7QRDF2kZsoUl7PEcg3AsGHecoYKR1l9OftTTq/oltzy6OQ5pRHYqqXFQnLS03suK+0zqno080vNao3AxombpZPjggXucnh5bUdgfwhMPD0NJ1J64NjnVpZ0aa5ZUzjMjqnIh2mc3M3Mk1lTavUxM3uJ625GxM6pzLSvIqENn3YqGSUDq++DDyFmTT+LnKThswbOAL5QoAILlJDf0brH2nVnLKMiN4QOdarzkHsKrNpboWJQqnlac2tROTIMzq3skUfNvYrw/t8U4S95EXuVGgMKnJiYWrwyDo9kGeGntpn31LM1gvbTCWyxwdah1LrEQ7i27bDo/9T/sJLmdkWIx0+pb4XlDQC9n5YbyT94i+Nmr8RUVM2VUrnTCAR4VEPccjmQwJ4avsB8QwPMOzJrNUfmgoPa8f1DPSd2398nS1cN9cS6udc+0hl4d64dq47rXMqkwM5+wld/MgJtSYzI0RzE/OcohA5M4CpWjlQDPYRXj0aEioELor6FalXkRKKIgQvC15oF0QtqUw4lghCmC3P1srdtlKk095Mz25n33UaeL17QFypMyCqU705b1cSCAT7lFTV3qdlD/ZoXliAzxGICQhdEKWBKI8pbfY1jax4MQUcEs6M5lSmNYentRtTmhue2kY6e6O9lmKClxVaRMxEK0SR4TWQoTomcvFpdDhfaIdYIaqcP3sNob8BUc7Wo06uyGWn6OdU9uiFQ50hDJkK2XkXOcizv23btqmzszPsxsspyN23NqlUSo2NjSLPZEzN7ej4eYQ8RVJtd58OdqfVn85eD+FvX5RWTXdSta396k8mlM5EISzORncZpTNJJaK06joTqulLqiNKhLfMM+K/bIyYXSbOSlcyCFtSySip6p6kjnam1JGhTSJce7j+TF94LSCR4U31lFJRMnvO8W/Fa5QwAtg/9nHP6ycH3oMjopmYyAWBGYyQEJOE5pentbC8XedU9glRGhS3ikgLy/s1Z2OfztqUDAI3Z2Ov5pandG55vxY8wNSYFHs9ZaD9/PKM5lf0aGlZU5g+f3XjUJ24uM2pTGluZVJf3ZjRnLCGmNTcipQWlPXpnPKUssdZWzRhi+fc91AKDyEqU1r/8Al1ZghIJq8BeRc5s8uysjJ98Ytf1EsvvTSqoP3kJz/R7bffHgTN2jU3N+tLX/qSqqurh6IxOziBHClC5N7YWaPFDzTpN1sbQ5wGWEf6Ii1/oFY//P1udWey835+khcEN0pr38leXft4tZY90KIlDzTpa0/V6Uh7X1g3yUZwWaEbjOailI639OmGJ+t0XkWzzi9v0jVP1eiDBtokgxGfaO9V5ZtNuuaJai0vb9CndV0uchPgsdSrYHN9irThsZYgOHNYg4uJnEVS8yqkeMpGRkktLuvS4vIuLSrv0oKKTl39YLM+qO3URfcf1OKy7vAriKzQIXK92rynX0s3toZIbkF5SovKGvXS4T6t2dQRIi4TrTm2HohoPpDS+qdatKsjpSW/6ghidXZlSmcTEYZpb1pnV2R0w9Ptev1gj87d2KqzKxPhAcL8ij69eqhX//1cjeZVpIatL9o641A+JHImeAs3dWpPW/+o2jGWfeRd5CDv8ccf1+c+9zm99957QbCef/75wYsNgjJwhUePHtW8efNUWVk5eM0tLS36/Oc/r5qamsGyyWzQPz+L60hldPFDVVr1ULN6+N1fJqPrnz6i8ypO6mhvSulMv6I0o6kUZZLqiTLa8KtGrdnUoie29+ixj9u1qLJJ1//mcHh/h5c0wzR0YMWO7e5kpO/9pl7nbezSYx916Kltnbpwc5vWP9Kk1lRaiXRGz+3o0HllDVrzYIcWlHVrW21PeMN7MvfkdUsPAX4kv681oUUVbZpXngpCML+CyCmepPkVw9O88kgbnmjW8b5IramMjqWkW185qrcOd6s7ndbxzoSqOxKq3NqueeEpbaRFFa3a3p7Qe8c7tKSiR/PLE1peWaOOKNKlj5wMr6kgcmdVRvrp6136w8cdenZLh/64pU2v721RbzrSc9ua9X9bWvX7T1v11NY2Xf14o+ZUEKUl9fgnbXq7qlMLKrs1rzKleZVJzdvYo0Nd0r2vHwnrbOEhSuxBypDA2ZR1uNDN29ivF/a0D05Zh+aH49tCXkWuq6tLN910k7785S/rwIEDSqfT2r17t84++2zdfPPN6ujoGCZ2CBJT2pMnTw6Wn67IMS1F5PjN37a6Hi2oaNf9b9drf12Xzq3o0VNbGpRKZxQlU4pSUfihcDrq1e+3NmhOZade2N+tZDqtZCbSI38/qaUV7XrvYKcyA9NMi+KYvr61v0OLyzq0+YNm9WXS6sz06c97GF179eSWFvVFGR1u6dCuxm79sy6hc8u6tb2uRxklx2fKa5Q0AlGU1LOfNWp+ebfOqUjqnIpUjsAhdsMFbn5FpPnlkRaU9+ubTx7X7rY+rSw7ooe3nNTBtn7d8MRB3fbsZ2pIpvTD3x/Skgd7smtiZWmt/NVJ/elYhxZuYv2vXysqa8MP/C96uDqsjSFyZ1dGuvmVbj31cY+e+rhLv9nSpRd2tqs3GemZLW367ZYu/XZLpx7/tEtXP9GsuRV9Wv3rFlUl06p467Ae39Gt5wfSn3a2qqM3rS3HW7Xxoy4tKEPE4tPU3O3hIjd3Y79+9vIJpaZgBXkROdYWnn76ac2dO1fnnHOO7rrrLj388MOD6Y477tDixYt11lln6bHHHgvTuFdffVVPPPGE/vznPyuZTOqhhx4K6f7779cXvvAF/fKXv9SDDz6oTZs2hX+fE0FsbW3VFVdcoUceeWTUWx8UIb7OkIn0necadP6DbbrsoWZd8eDJ8JvAdDqpKJFRlJL4ukM6Hek7v6/Too3t2tfeHwQSoTzY1ifC5or3eXeHhxVD01XW5ja906Yl5Z3aXtMdBD2dzuhIS0LLKzp183P1SmXSYZ2PL0dsqXeRG5W0WXeAB1ApPfBmi+ZUZkWOaG54FHeqyC0I624JLSrr073vn9Rb+5t1/gMn9fK+JjUn+/VxQ7u6UpF2nOxUVVeffv7OYS2sbNctr7bqp39t09JKRDWheWVJXf67KnUprSserwvik32QEGlxWUpLylq0qLxGC8ur9c3fVKk5ndElFce0vKxZ51fU69wH+jW3LKm55UmV/b1NbemMvvv7E3p6R49+v7NLz+zs0LPbO9TRn9bH1S3a+I9uLSjPFbXc/azIsSaXTSld9Ugzj/8mbR15ETmu4sknn9Szzz6rN998U/fcc4/uvfde3XfffSGxvX37dr344ovauXNnEDlEcP369dqwYUMQuR/+8If60Y9+pG9+85thLe9b3/pW2Kecf/CXPx5ifO9739Mf//jHUW/cRK47kdbmt+p1+9/6tKQirSXlaX332Ubd/3abqttZL4uGRC4T6frfVGv5plbV9aeVUjYabMpEWvBgl370/PHwcCHDbwsHnsXyTPaWF+q0pKxT9T2IWTYqbE1EWlPRrK//rk6JKKN0OqVkJBe5URmbnQd4qv+Tl5t1dnk6LM5PSOQq0jq3ol9LH2zSwY6U2lJp1fdH+tFTu3SwtU+XbdqlpmRGl9+3V69/VqV73z6iJZtb9Y/qVjVGkS7e1KB55f06p7xf33ujRj1RWt/9Q014SEAkx3rfuZUders2qZYoo45MpHY+k5TJqD5Kqy1Kqz6d1uKyVs0rT2v94y1qTBBMpHT5E/W6/pkGXfu7Zs3fmNDiig4d7crovjcPaVEZ63S5ojbSPkLHQ4ys0C0pa1Bf7EHmRC0lbyLHBdTX12vPnj1hikq+d+/eYamtrS08ZCAqI/p79NFHddlll4VtyvhramoKIldbWzvsnqxNeGIZ3jkbReEHipv7klp+X5WWlLfr3IqUzq1MamlFq5aWdWpnLcLDxwNZj0PQIl3z2DEtq2hVPSI3MOVtiyLN39Stm587oVT4Xd3QqyiE0T9+sUZLKzrUmMgok84E4WxPRFpd0aL/eLI++2SWqa+kT08mtLCsx6erw1idvTsMl7e92q455dmnjojAmJFcucIT1PkV/fqvF06qO8rovtd3qrZX+sGT+4LgHelIqj+V1O6OflX3J7XxnSOaW96v1Q+cVIOktZtqw5PYuRXd+tvBLnUmU/rDzjadXZ4Mr57wE7JzKvu14qF6fVjdpRe21Wrtr6p1weZGXbr5kN7YV6v3q3iC26W5FUld94cGvX+0Ua3ptK56rFYPftSsAy1JrXmoRYsqe3S8O6173jiohWX9kxA5BI6HGxktLatTX8xERvH4WI3sZl5FjqkmU9KVK1dqzZo1uuCCC0Jin3U6HkQgVpZGEzmmq7kPHqxNPD/l7qwgfOSUDwtm1BpFWvtwvZZtrtGBjNSYitSV5vUU5qrZr6Qiajc+jWC1qror+zSVsuPtCS3Y1K373m5VOmXvuPGSShSivV+806rFZW061NwdRC76fw83alr7w89zvvNsq1IZhM9FzmjxfAgBRO6Btzs0l0jOXtkIa3BRTOxia3KIXEVa8ysSuvGZVn10okW/eGOPqnulH/32iHa29uuqBw+qLpnUxeV79NLeE3rw3cPhN6HLyzrVHEnrH9ynez/t1tJ7GtTQk9LGF3erLpnW8s3dA59tyr4Hd1ZFSlc9elANfUn9+IUaLaps1b1vnVRVf1LXPdGkOeHTT0kt2Nyty3/doKaUdPVjTVpS0aEPa3v11yO9WrixSyc6pbvfOKSFZclJilw6iNy6x5vFItFk//IqckxPr7rqqsGHCPGLW7Zsmd5///3BqA2xMpE7duyY3n333dCOV0hGEjn6oo3lth0/h21zrKU7qTUP7NHqslbN3ZzSuRUJLars0IoH2rW9hieriexnoFNSOpPSw5826qyHWvR+Tbf6oqT6o4ye2dKsxZW9em1/pxIZprgpRZmsQPZmEnppX4eW3N+m57a1KpVOKZXu1zuH2nV+RYce+7BRYXo7LJLzBw/G0WzP+eLIn3Y0al5Fr+aXZ18TGXrQgNAhaLkil9H88pTO2dihP+yq1y//QiSX0Y+f2q+mdI92tyfUm+zVnraEGvvT2vxOVuTOr2gRb6vuPtGhtw936t5XjwdhuvihGu1p7dfmdxvCwwjeY8u+GpLU/Ipu3fZCvWr6evTWwWY19CX0oz/zcK5XZ1f0a05FUl8t79PyX/eoLS1d82j29ZGLH6nRjU+3af4D3arqikIkd+5kRC68SpP9SdudL9aId1En+5d3kbvyyisHxSh+ccuXLx9R5HiFZM6cObr77ruDAPJ0dTSRYyrLsTvvvDPe9fDtgffeuvpSuuflOt31YoOWlrVpSVmr7nylVXe92qzqjowiXjRkHY1paDpSfSrSql816brHq/V+dYfePtqtSzbVa8OvqlXfz2dwMqrp6NGbR7tV3Z4IAtacTOnyxxt0yeZG/e1Ypz6satcVj9ZrzYPNOplIMxcO98Qa35aTPHgYmK5G/nR1OGmzZW/IYXlvc287X/ftEE9N+cXDMFGLCxzb5dKCikxYC5uzsVt/2lWnE70JtaQibX5tv96u7dXFm6uCra6/75D+suuENr5zWHPKE1q2sUVdUniF5KbH94ffyt792kktrOjXrc/Wqzmd0vfdgJ9fAAAItElEQVRebAkvEjNdXVDZrit/06hNf2tQU2ePupJJHWvr0j2vNeuqh+u1qLxV55T36qyKhJb9ukftaenaR9v01Y0JzSnv1uL72rWkrE3V3ZF+ORjJjfd0lTW67MMHfplx1qZ+vbi3ncnWpP/yJnJET0RyvOP27//+7yHP3bZIjnU10o033hjeo/vtb38bnk5SNlYkxysqt912m1544YURhdTQCBPKKPvj53SU0rUPV2nVpqPhfTlewAw/5GLaHKLDdBAspqfvHGzVJZvatLy8VcsrWnXJI036pK5H6fBTsIxe296i88qb9OJn7Ury5DRK6p/13brykbogpEvL67X6oXq9sq81PIgAExJfPt1ysk9LH2jW1rru8AuIcO6Bhxh23Z7PHgTgvzOSLnysMbwoO5bAMZ0NIhd+gZDRWRV9emx7k+55+bAuerBNR3pS+sGrJ3X+r1q1hwdu71XpSEePbn7luHjJeEFlj9442qtVD1ZpfyKl1w52a2l5uxaU92lhOYLZrt288LupV//91ybt60zqZEb6pK5Xd/2lSWsfrNLGdxq0rb5bTalIB3ula/+vRXPK01r1ULuaM9LVT7SGdbrlD/bo44aU9rYm1JjO6BtP1WnxA+kxpqv2G9YhkePBw7nl3TrUyrPVyatcXkWO10N4KkrElZuuu+46bdmyJYibOT/7O3bsCEJgZbwmcvHFF4d35+Imb8eDaIzzcy+Dhbp85eHve6v01p5apaLeMA0Nv3IYEJi42KTTUl1Ceudwg9472qimJD/D4tPMyTBNPd7So9f21upYU2eY4jIaJzNJtSeT+qiqTe8erFdTMnvOECVG2c8A8CStradfb+6p0skeHtzzjNb/Zi0C4ffULJNE+vmrjWFqGiK5sO4Wm6LGozkiuSByaX11ExFgY/hlw6LyhG54pk5zHmQa2avlv2zRDU/X60ev1GjZxuyLvmdVpLWwol3nbGzXza+06PyKJi0sS2jufdn38+ZVtujSR1o0vyylNQ/X6a73m3XBozWaV86vIVKatzH7svKi8nat3digH/wRYe7WvLKU5j/YpdteOa6Vv2oP639nl/XpJ3+p1f+8VqXv/KFG55b1a0E5XxkZ6WlqvCwbxRHN8eDhskdOqov3WQtJ5MYz2LhITXR7vD4nfHxQyYaejlqRlYRr4p25KArrAIhbMkqJSBCRE48awneu0kqlktntbEwYIjV+EWEPMhC40F8Q0oEHFghzeGSRcImbMHElWnFA5Bgk97WktHBzW/Zl4LFErgKRy67V8VtQfmiPGBD18CIxiXUyXizmVwdzyxPhE0b2Oka2bip88SM8veSJavjFQrav8OP90C8/3k8O/ICfY9kf84d+NmZ/4RDahfMP/Ni/MqG54RhPRVMhomM/9GOvhLAfpqNxYYtvZ0VuXhDyPr26v3MwIJqsFeQtkhvvQiYqbNSb3j+LmkzW7LshQznnC8IURA45Q6/43n72m/vIXlzkTOyycRr98yPibP1BgYs9Rc7ee7ZOts303qH3VpwIYEcMpHe+WiteDeE3qmNNW/m1A6+ZmOBkcz46ieAlB98vC/uUhS+ODBwf2B88RsSUW4ZQhb44NiBuoU5W9Abrj9rW6sWEcvAcCORY63IDIleR0YpHjqklyZr55H+cjyWcMZErJDM0ubOca2M9kD8rMyEjz35zJCtmg59OyrmhXBHPOey7jsApCDAVY4X4ZH9al/y6KXwNeMwHEGHKyqeLsp9MGhSdQSEZSbgKpwwBPXXaamXZyHRJWYc+aewPv0IK3y47BbXxC1zkBjAaFLMczAbLwyde+NTLxEQu3s30R6Px3n27dBDILmvw+fM3D7br/Mq2sECfjeZGedo6sDY3LIorEpELohzW3IamqeHzSwNfPuF1mop3TioV3l8NjwenRLWLXAw2E7RY0VAkR1Q3MF2dSCQ3rI9pn3LHe/ftUkEA+8p+BieljNL647YWnbupM3y7ja+NjDp1LeeVE5u2Fk6kNl5kGabCCHIlT1uzEZyJHP+27PeeO6HugRf0h+ZUk2fbRS4HM4Qu/mfCN5hjiOFRQTyPtzh12yO5UzHxklMRCEscYZkka1upKKPndrXpvAf5xhwPEbJiNtJaHQ8hEIrxhKUQj4dpa3jnL/uTtgUVvfr5i9Xq4Z3VKa7DxdF1kYujMcL2oLgNrM9lq8QFjm3/cwROHwFbx2UQ5ek8v6dORWltr+/R5Y/wO9Pe8L02e0+OyC77qkn2AcQ8ewBgeaFOW2PXZw82zkGkyzM6b1OHnj3Urm7ELXwJOHd5aPI4u8iNg1lc5IaqusgNYeFb+UAAuwsfhghP6vvVkUnrkY9bdElli/jEUviWHJEdr1gMvErCv+gV1ubCOlfhbtvrKfbKy7zypFZtbNXNL9apkTcaMvx4ixd/eYvBRS4f9jWsz5FFjipxoRvWxHccgdNCwGyOV5b4zpw5Oh+A5VuEH5/o1H/9/oRWbWzQ4vKe8CIvP3rnN6HFkPjI5/zNnVq2uUmXbT6u326vV0vUJx64BLfi32EJa3H2mtXp+ZpHcuOYIwbnf47ATCJgIhceRIS3NIeiGV4gD5/xiviYazJ8CLY9I3Vksj8L46dhhZq6YtfYFf4hqWjgySkfx2B6mv0K0LD8lDXwyTPhIjd5zLyFI5BXBAZFLpxlKIqxcj7wkP0XRrK/zyHWK4aUfYWeaTg/YZvai72GwURzIHSRy6u5eueOwOQRiDtwdv4WfnMz/HWm+Ivqvj0qNqDvIjd5G/QWjkBeEThV5LLRXLzct4fenBsLC4hykcuruXrnjsDkEYg77VDrgQ87DERtyF68nm+PjAf4ucgNWZFvOQIFhQDClf37/9s5cxQAYBAI/v/XQTYiwYBgpTCVOZog41RhtQqRKXAo9v8B517dKyXngZZUBXvSB/oAA3sYMM2VkvNf2NSbCZcikziHDRiYygCSQ1hPCvNUUHkXEu0yYJI747CksMEqiN8AAAAASUVORK5CYII=;" vertex="1" parent="1">
          <mxGeometry x="68.26" y="1516.5" width="151.74" height="287" as="geometry" />
        </mxCell>
      </root>
    </mxGraphModel>
  </diagram>
</mxfile>
